<svg width="341" height="82" viewBox="0 0 341 82" fill="none" xmlns="http://www.w3.org/2000/svg">
<rect x="0.5" y="0.5" width="340" height="81" rx="17.5" fill="#29313C"/>
<rect x="0.5" y="0.5" width="340" height="81" rx="17.5" stroke="#006ACD"/>
<path d="M13.4723 49.4626L18.1246 54.6564L13.4723 59.8503L12.1923 58.759L14.0877 56.6831C14.312 56.437 14.5362 56.2099 14.7605 56.0021C14.9903 55.7888 15.2282 55.6 15.4744 55.4359H8.72154V53.877H15.4826C15.3021 53.7566 15.1379 53.639 14.9903 53.5241C14.848 53.4093 14.7058 53.2807 14.5636 53.1385C14.4268 52.9908 14.2682 52.8212 14.0877 52.6298L12.1923 50.5539L13.4723 49.4626ZM25.2853 52.3016C25.2853 51.7819 25.1841 51.3662 24.9817 51.0544C24.7848 50.7426 24.5031 50.5156 24.1366 50.3734C23.7755 50.2311 23.3489 50.16 22.8566 50.16H21.4945V54.5662H22.8812C23.3571 54.5662 23.7755 54.4951 24.1366 54.3529C24.4976 54.2106 24.7793 53.9754 24.9817 53.6472C25.1841 53.319 25.2853 52.8705 25.2853 52.3016ZM27.2873 52.2852C27.2873 53.1658 27.0986 53.8797 26.7212 54.4267C26.3492 54.9737 25.8296 55.3758 25.1622 55.6329C24.4949 55.8899 23.729 56.0185 22.8648 56.0185H21.4945V60.0554H19.5909V48.7323H22.7335C24.1557 48.7323 25.2689 49.025 26.073 49.6103C26.8826 50.1901 27.2873 51.0817 27.2873 52.2852ZM29.0901 60.0554V58.7426H30.3619V52.6954H29.0901V51.3908H31.7649L32.1013 53.4011C32.4241 52.6735 32.8234 52.1211 33.2993 51.7436C33.7807 51.3607 34.3988 51.1693 35.1537 51.1693C35.4107 51.1693 35.6405 51.1911 35.8429 51.2349C36.0507 51.2732 36.2559 51.3252 36.4583 51.3908L35.9085 52.9662C35.7335 52.917 35.5694 52.8814 35.4162 52.8595C35.2631 52.8322 35.0935 52.8185 34.9075 52.8185C34.2784 52.8185 33.7342 53.0537 33.2747 53.5241C32.8207 53.9946 32.4624 54.6619 32.1998 55.5262V58.7426H33.9475V60.0554H29.0901ZM34.8337 54.5826V52.4493L35.0634 51.3908H36.4583L36.1465 54.5826H34.8337ZM42.0025 51.1611C42.8504 51.1611 43.5642 51.3498 44.1441 51.7272C44.7239 52.1047 45.1615 52.6325 45.4569 53.3108C45.7577 53.9891 45.9082 54.7877 45.9082 55.7067C45.9082 56.6202 45.755 57.4216 45.4487 58.1108C45.1478 58.7946 44.7048 59.3279 44.1195 59.7108C43.5396 60.0882 42.8313 60.277 41.9943 60.277C41.1574 60.277 40.4463 60.0937 39.861 59.7272C39.2812 59.3552 38.8381 58.8274 38.5318 58.1436C38.2309 57.4599 38.0805 56.653 38.0805 55.7231C38.0805 54.8205 38.2309 54.0274 38.5318 53.3436C38.8381 52.6599 39.2839 52.1265 39.8692 51.7436C40.4545 51.3552 41.1656 51.1611 42.0025 51.1611ZM42.0025 52.5888C41.3407 52.5888 40.8429 52.8431 40.5092 53.3518C40.1755 53.8551 40.0087 54.6455 40.0087 55.7231C40.0087 56.7952 40.1728 57.5857 40.501 58.0944C40.8347 58.6031 41.3324 58.8575 41.9943 58.8575C42.6562 58.8575 43.1513 58.6031 43.4795 58.0944C43.8131 57.5857 43.98 56.7898 43.98 55.7067C43.98 54.64 43.8159 53.8551 43.4877 53.3518C43.1595 52.8431 42.6644 52.5888 42.0025 52.5888ZM55.3499 50.2913L55.8422 51.8175C55.4976 51.9323 55.1174 52.0089 54.7017 52.0472C54.2914 52.0855 53.8319 52.1047 53.3232 52.1047C53.8429 52.3344 54.234 52.6298 54.4965 52.9908C54.7591 53.3464 54.8904 53.784 54.8904 54.3036C54.8904 54.867 54.7536 55.3703 54.4801 55.8134C54.2066 56.2564 53.8155 56.6038 53.3068 56.8554C52.7981 57.107 52.1882 57.2329 51.4771 57.2329C51.2254 57.2329 51.0066 57.2219 50.8206 57.2C50.6401 57.1782 50.4624 57.1426 50.2873 57.0934C50.1779 57.1699 50.0849 57.2739 50.0083 57.4052C49.9372 57.531 49.9017 57.665 49.9017 57.8072C49.9017 57.9823 49.9728 58.1354 50.115 58.2667C50.2627 58.3925 50.5526 58.4554 50.9847 58.4554H52.4945C53.1126 58.4554 53.6569 58.5621 54.1273 58.7754C54.6032 58.9833 54.9752 59.2705 55.2432 59.637C55.5167 59.998 55.6535 60.4082 55.6535 60.8677C55.6535 61.732 55.2815 62.4021 54.5376 62.878C53.7936 63.3539 52.7215 63.5918 51.3212 63.5918C50.3311 63.5918 49.5543 63.4906 48.9909 63.2882C48.4275 63.0858 48.0309 62.785 47.8012 62.3857C47.5714 61.9864 47.4565 61.4968 47.4565 60.917H49.1058C49.1058 61.2178 49.1632 61.4667 49.2781 61.6636C49.3984 61.8605 49.62 62.0082 49.9427 62.1067C50.2654 62.2052 50.7304 62.2544 51.3376 62.2544C51.9447 62.2544 52.4261 62.2024 52.7817 62.0985C53.1427 62 53.4025 61.8551 53.5612 61.6636C53.7253 61.4776 53.8073 61.2534 53.8073 60.9908C53.8073 60.6407 53.6541 60.3699 53.3478 60.1785C53.0415 59.987 52.6312 59.8913 52.1171 59.8913H50.6319C49.8114 59.8913 49.2097 59.7245 48.8268 59.3908C48.4494 59.0571 48.2606 58.6688 48.2606 58.2257C48.2606 57.9303 48.3427 57.6458 48.5068 57.3723C48.6764 57.0988 48.9171 56.8609 49.2288 56.6585C48.7092 56.385 48.329 56.0541 48.0883 55.6657C47.8531 55.2718 47.7355 54.7959 47.7355 54.238C47.7355 53.6253 47.8887 53.0893 48.195 52.6298C48.5013 52.1703 48.9253 51.812 49.4668 51.5549C50.0138 51.2978 50.6429 51.1693 51.354 51.1693C52.0487 51.1693 52.6285 51.1337 53.0935 51.0626C53.5584 50.986 53.9632 50.8794 54.3078 50.7426C54.6579 50.6058 55.0053 50.4554 55.3499 50.2913ZM51.3704 52.4329C50.7851 52.4329 50.3447 52.5997 50.0494 52.9334C49.754 53.2616 49.6063 53.691 49.6063 54.2216C49.6063 54.7686 49.7567 55.2089 50.0576 55.5426C50.3639 55.8708 50.8097 56.0349 51.395 56.0349C51.9365 56.0349 52.3495 55.8763 52.634 55.559C52.9239 55.2417 53.0688 54.7905 53.0688 54.2052C53.0688 53.6144 52.9266 53.1713 52.6422 52.8759C52.3577 52.5805 51.9338 52.4329 51.3704 52.4329ZM57.6613 60.0554V58.7426H58.9331V52.6954H57.6613V51.3908H60.3362L60.6726 53.4011C60.9953 52.6735 61.3946 52.1211 61.8705 51.7436C62.3519 51.3607 62.97 51.1693 63.7249 51.1693C63.982 51.1693 64.2117 51.1911 64.4141 51.2349C64.622 51.2732 64.8271 51.3252 65.0295 51.3908L64.4798 52.9662C64.3047 52.917 64.1406 52.8814 63.9875 52.8595C63.8343 52.8322 63.6647 52.8185 63.4788 52.8185C62.8497 52.8185 62.3054 53.0537 61.8459 53.5241C61.3919 53.9946 61.0336 54.6619 60.7711 55.5262V58.7426H62.5188V60.0554H57.6613ZM63.4049 54.5826V52.4493L63.6346 51.3908H65.0295L64.7177 54.5826H63.4049ZM73.7246 57.9303C73.7246 58.2694 73.7765 58.5183 73.8805 58.677C73.9844 58.8301 74.1512 58.945 74.381 59.0216L73.9707 60.2688C73.544 60.2195 73.1775 60.1019 72.8712 59.9159C72.5649 59.7299 72.3324 59.4482 72.1738 59.0708C71.8565 59.4701 71.4545 59.771 70.9676 59.9734C70.4808 60.1758 69.9611 60.277 69.4087 60.277C68.5334 60.277 67.8387 60.0308 67.3246 59.5385C66.8158 59.0407 66.5615 58.3898 66.5615 57.5857C66.5615 56.6722 66.917 55.9693 67.6281 55.477C68.3393 54.9847 69.3567 54.7385 70.6805 54.7385H71.9194V54.1723C71.9194 53.6144 71.7499 53.2123 71.4107 52.9662C71.077 52.72 70.6039 52.597 69.9912 52.597C69.7068 52.597 69.3622 52.6352 68.9574 52.7118C68.5526 52.7829 68.1287 52.8951 67.6856 53.0482L67.2343 51.7518C67.7758 51.5494 68.3064 51.4017 68.8261 51.3088C69.3457 51.2103 69.8271 51.1611 70.2702 51.1611C71.4299 51.1611 72.2941 51.4182 72.863 51.9323C73.4374 52.4465 73.7246 53.1576 73.7246 54.0657V57.9303ZM69.9666 58.9231C70.3386 58.9231 70.7023 58.8247 71.0579 58.6277C71.4134 58.4308 71.7006 58.1546 71.9194 57.799V55.8872H70.902C70.0377 55.8872 69.4196 56.0322 69.0476 56.3221C68.6757 56.6065 68.4897 57.0004 68.4897 57.5036C68.4897 57.9631 68.6128 58.3159 68.8589 58.5621C69.1105 58.8028 69.4798 58.9231 69.9666 58.9231ZM82.6001 51.1611C82.9283 51.1611 83.2237 51.2322 83.4863 51.3744C83.7488 51.5166 83.9539 51.7655 84.1016 52.1211C84.2548 52.4766 84.3314 52.9744 84.3314 53.6144V60.0554H82.6986V53.8688C82.6986 53.4147 82.6657 53.0893 82.6001 52.8923C82.5399 52.6954 82.3786 52.597 82.116 52.597C81.9081 52.597 81.6975 52.6626 81.4842 52.7939C81.2709 52.9197 81.0548 53.1385 80.836 53.4503V60.0554H79.3509V53.8688C79.3509 53.4147 79.318 53.0893 79.2524 52.8923C79.1922 52.6954 79.0309 52.597 78.7683 52.597C78.555 52.597 78.3416 52.6626 78.1283 52.7939C77.9204 52.9197 77.7071 53.1385 77.4883 53.4503V60.0554H75.8473V51.3908H77.2339L77.357 52.3262C77.6032 51.9816 77.8712 51.7026 78.1611 51.4893C78.451 51.2705 78.8011 51.1611 79.2114 51.1611C79.5396 51.1611 79.8377 51.2431 80.1057 51.4072C80.3738 51.5713 80.5707 51.8585 80.6965 52.2688C80.9372 51.9405 81.2107 51.6752 81.517 51.4729C81.8233 51.265 82.1844 51.1611 82.6001 51.1611ZM92.1238 51.1611C92.4521 51.1611 92.7474 51.2322 93.01 51.3744C93.2726 51.5166 93.4777 51.7655 93.6254 52.1211C93.7785 52.4766 93.8551 52.9744 93.8551 53.6144V60.0554H92.2223V53.8688C92.2223 53.4147 92.1895 53.0893 92.1238 52.8923C92.0637 52.6954 91.9023 52.597 91.6397 52.597C91.4319 52.597 91.2213 52.6626 91.008 52.7939C90.7946 52.9197 90.5785 53.1385 90.3597 53.4503V60.0554H88.8746V53.8688C88.8746 53.4147 88.8418 53.0893 88.7762 52.8923C88.716 52.6954 88.5546 52.597 88.2921 52.597C88.0787 52.597 87.8654 52.6626 87.6521 52.7939C87.4442 52.9197 87.2309 53.1385 87.0121 53.4503V60.0554H85.371V51.3908H86.7577L86.8808 52.3262C87.1269 51.9816 87.395 51.7026 87.6849 51.4893C87.9748 51.2705 88.3249 51.1611 88.7351 51.1611C89.0633 51.1611 89.3615 51.2431 89.6295 51.4072C89.8975 51.5713 90.0944 51.8585 90.2203 52.2688C90.4609 51.9405 90.7344 51.6752 91.0408 51.4729C91.3471 51.265 91.7081 51.1611 92.1238 51.1611ZM100.409 51.3908V58.7098H102.763V60.0554H95.9779V58.7098H98.5707V52.7364H96.0599V51.3908H100.409ZM99.1286 47.1488C99.4896 47.1488 99.7796 47.2582 99.9984 47.477C100.223 47.6958 100.335 47.9693 100.335 48.2975C100.335 48.6257 100.223 48.9019 99.9984 49.1262C99.7796 49.3505 99.4896 49.4626 99.1286 49.4626C98.7785 49.4626 98.4914 49.3505 98.2671 49.1262C98.0428 48.9019 97.9307 48.6257 97.9307 48.2975C97.9307 47.9693 98.0428 47.6958 98.2671 47.477C98.4914 47.2582 98.7785 47.1488 99.1286 47.1488ZM105.198 60.0554V51.3908H106.782L106.921 52.5149C107.282 52.0718 107.709 51.7354 108.201 51.5057C108.693 51.2759 109.199 51.1611 109.719 51.1611C110.529 51.1611 111.133 51.3881 111.532 51.8421C111.937 52.2906 112.14 52.9224 112.14 53.7375V60.0554H110.302V54.6482C110.302 54.145 110.272 53.7402 110.211 53.4339C110.151 53.1276 110.031 52.906 109.85 52.7693C109.675 52.6325 109.413 52.5641 109.063 52.5641C108.784 52.5641 108.518 52.6243 108.267 52.7447C108.015 52.865 107.785 53.0236 107.578 53.2205C107.37 53.412 107.189 53.6171 107.036 53.8359V60.0554H105.198ZM122.016 50.2913L122.508 51.8175C122.164 51.9323 121.784 52.0089 121.368 52.0472C120.958 52.0855 120.498 52.1047 119.989 52.1047C120.509 52.3344 120.9 52.6298 121.163 52.9908C121.425 53.3464 121.557 53.784 121.557 54.3036C121.557 54.867 121.42 55.3703 121.146 55.8134C120.873 56.2564 120.482 56.6038 119.973 56.8554C119.464 57.107 118.854 57.2329 118.143 57.2329C117.892 57.2329 117.673 57.2219 117.487 57.2C117.306 57.1782 117.129 57.1426 116.954 57.0934C116.844 57.1699 116.751 57.2739 116.675 57.4052C116.603 57.531 116.568 57.665 116.568 57.8072C116.568 57.9823 116.639 58.1354 116.781 58.2667C116.929 58.3925 117.219 58.4554 117.651 58.4554H119.161C119.779 58.4554 120.323 58.5621 120.794 58.7754C121.269 58.9833 121.641 59.2705 121.909 59.637C122.183 59.998 122.32 60.4082 122.32 60.8677C122.32 61.732 121.948 62.4021 121.204 62.878C120.46 63.3539 119.388 63.5918 117.987 63.5918C116.997 63.5918 116.221 63.4906 115.657 63.2882C115.094 63.0858 114.697 62.785 114.467 62.3857C114.238 61.9864 114.123 61.4968 114.123 60.917H115.772C115.772 61.2178 115.829 61.4667 115.944 61.6636C116.065 61.8605 116.286 62.0082 116.609 62.1067C116.932 62.2052 117.397 62.2544 118.004 62.2544C118.611 62.2544 119.092 62.2024 119.448 62.0985C119.809 62 120.069 61.8551 120.227 61.6636C120.392 61.4776 120.474 61.2534 120.474 60.9908C120.474 60.6407 120.32 60.3699 120.014 60.1785C119.708 59.987 119.297 59.8913 118.783 59.8913H117.298C116.478 59.8913 115.876 59.7245 115.493 59.3908C115.116 59.0571 114.927 58.6688 114.927 58.2257C114.927 57.9303 115.009 57.6458 115.173 57.3723C115.343 57.0988 115.583 56.8609 115.895 56.6585C115.375 56.385 114.995 56.0541 114.755 55.6657C114.519 55.2718 114.402 54.7959 114.402 54.238C114.402 53.6253 114.555 53.0893 114.861 52.6298C115.168 52.1703 115.592 51.812 116.133 51.5549C116.68 51.2978 117.309 51.1693 118.02 51.1693C118.715 51.1693 119.295 51.1337 119.76 51.0626C120.225 50.986 120.629 50.8794 120.974 50.7426C121.324 50.6058 121.672 50.4554 122.016 50.2913ZM118.037 52.4329C117.451 52.4329 117.011 52.5997 116.716 52.9334C116.42 53.2616 116.273 53.691 116.273 54.2216C116.273 54.7686 116.423 55.2089 116.724 55.5426C117.03 55.8708 117.476 56.0349 118.061 56.0349C118.603 56.0349 119.016 55.8763 119.3 55.559C119.59 55.2417 119.735 54.7905 119.735 54.2052C119.735 53.6144 119.593 53.1713 119.308 52.8759C119.024 52.5805 118.6 52.4329 118.037 52.4329ZM124.746 60.0554V48.7323H126.65V58.4636H131.72L131.515 60.0554H124.746ZM138.504 51.3908V58.7098H140.858V60.0554H134.073V58.7098H136.666V52.7364H134.155V51.3908H138.504ZM137.224 47.1488C137.585 47.1488 137.875 47.2582 138.093 47.477C138.318 47.6958 138.43 47.9693 138.43 48.2975C138.43 48.6257 138.318 48.9019 138.093 49.1262C137.875 49.3505 137.585 49.4626 137.224 49.4626C136.874 49.4626 136.586 49.3505 136.362 49.1262C136.138 48.9019 136.026 48.6257 136.026 48.2975C136.026 47.9693 136.138 47.6958 136.362 47.477C136.586 47.2582 136.874 47.1488 137.224 47.1488ZM150.587 50.2913L151.08 51.8175C150.735 51.9323 150.355 52.0089 149.939 52.0472C149.529 52.0855 149.069 52.1047 148.561 52.1047C149.08 52.3344 149.471 52.6298 149.734 52.9908C149.997 53.3464 150.128 53.784 150.128 54.3036C150.128 54.867 149.991 55.3703 149.718 55.8134C149.444 56.2564 149.053 56.6038 148.544 56.8554C148.036 57.107 147.426 57.2329 146.715 57.2329C146.463 57.2329 146.244 57.2219 146.058 57.2C145.878 57.1782 145.7 57.1426 145.525 57.0934C145.415 57.1699 145.322 57.2739 145.246 57.4052C145.175 57.531 145.139 57.665 145.139 57.8072C145.139 57.9823 145.21 58.1354 145.353 58.2667C145.5 58.3925 145.79 58.4554 146.222 58.4554H147.732C148.35 58.4554 148.894 58.5621 149.365 58.7754C149.841 58.9833 150.213 59.2705 150.481 59.637C150.754 59.998 150.891 60.4082 150.891 60.8677C150.891 61.732 150.519 62.4021 149.775 62.878C149.031 63.3539 147.959 63.5918 146.559 63.5918C145.569 63.5918 144.792 63.4906 144.228 63.2882C143.665 63.0858 143.268 62.785 143.039 62.3857C142.809 61.9864 142.694 61.4968 142.694 60.917H144.343C144.343 61.2178 144.401 61.4667 144.516 61.6636C144.636 61.8605 144.857 62.0082 145.18 62.1067C145.503 62.2052 145.968 62.2544 146.575 62.2544C147.182 62.2544 147.664 62.2024 148.019 62.0985C148.38 62 148.64 61.8551 148.799 61.6636C148.963 61.4776 149.045 61.2534 149.045 60.9908C149.045 60.6407 148.892 60.3699 148.585 60.1785C148.279 59.987 147.869 59.8913 147.355 59.8913H145.869C145.049 59.8913 144.447 59.7245 144.064 59.3908C143.687 59.0571 143.498 58.6688 143.498 58.2257C143.498 57.9303 143.58 57.6458 143.744 57.3723C143.914 57.0988 144.155 56.8609 144.466 56.6585C143.947 56.385 143.567 56.0541 143.326 55.6657C143.091 55.2718 142.973 54.7959 142.973 54.238C142.973 53.6253 143.126 53.0893 143.433 52.6298C143.739 52.1703 144.163 51.812 144.704 51.5549C145.251 51.2978 145.88 51.1693 146.591 51.1693C147.286 51.1693 147.866 51.1337 148.331 51.0626C148.796 50.986 149.201 50.8794 149.545 50.7426C149.895 50.6058 150.243 50.4554 150.587 50.2913ZM146.608 52.4329C146.023 52.4329 145.582 52.5997 145.287 52.9334C144.991 53.2616 144.844 53.691 144.844 54.2216C144.844 54.7686 144.994 55.2089 145.295 55.5426C145.601 55.8708 146.047 56.0349 146.633 56.0349C147.174 56.0349 147.587 55.8763 147.871 55.559C148.161 55.2417 148.306 54.7905 148.306 54.2052C148.306 53.6144 148.164 53.1713 147.88 52.8759C147.595 52.5805 147.171 52.4329 146.608 52.4329ZM159.438 57.9303C159.438 58.2694 159.49 58.5183 159.594 58.677C159.698 58.8301 159.865 58.945 160.095 59.0216L159.684 60.2688C159.258 60.2195 158.891 60.1019 158.585 59.9159C158.279 59.7299 158.046 59.4482 157.888 59.0708C157.57 59.4701 157.168 59.771 156.681 59.9734C156.195 60.1758 155.675 60.277 155.122 60.277C154.247 60.277 153.552 60.0308 153.038 59.5385C152.53 59.0407 152.275 58.3898 152.275 57.5857C152.275 56.6722 152.631 55.9693 153.342 55.477C154.053 54.9847 155.07 54.7385 156.394 54.7385H157.633V54.1723C157.633 53.6144 157.464 53.2123 157.124 52.9662C156.791 52.72 156.318 52.597 155.705 52.597C155.421 52.597 155.076 52.6352 154.671 52.7118C154.266 52.7829 153.842 52.8951 153.399 53.0482L152.948 51.7518C153.49 51.5494 154.02 51.4017 154.54 51.3088C155.059 51.2103 155.541 51.1611 155.984 51.1611C157.144 51.1611 158.008 51.4182 158.577 51.9323C159.151 52.4465 159.438 53.1576 159.438 54.0657V57.9303ZM155.68 58.9231C156.052 58.9231 156.416 58.8247 156.772 58.6277C157.127 58.4308 157.414 58.1546 157.633 57.799V55.8872H156.616C155.751 55.8872 155.133 56.0322 154.761 56.3221C154.389 56.6065 154.203 57.0004 154.203 57.5036C154.203 57.9631 154.327 58.3159 154.573 58.5621C154.824 58.8028 155.194 58.9231 155.68 58.9231ZM164.868 50.1764V53.7785H169.126V55.2226H164.868V60.0554H162.964V48.7323H169.93L169.717 50.1764H164.868ZM175.335 51.1611C176.183 51.1611 176.897 51.3498 177.477 51.7272C178.056 52.1047 178.494 52.6325 178.789 53.3108C179.09 53.9891 179.241 54.7877 179.241 55.7067C179.241 56.6202 179.088 57.4216 178.781 58.1108C178.48 58.7946 178.037 59.3279 177.452 59.7108C176.872 60.0882 176.164 60.277 175.327 60.277C174.49 60.277 173.779 60.0937 173.193 59.7272C172.614 59.3552 172.171 58.8274 171.864 58.1436C171.563 57.4599 171.413 56.653 171.413 55.7231C171.413 54.8205 171.563 54.0274 171.864 53.3436C172.171 52.6599 172.616 52.1265 173.202 51.7436C173.787 51.3552 174.498 51.1611 175.335 51.1611ZM175.335 52.5888C174.673 52.5888 174.175 52.8431 173.842 53.3518C173.508 53.8551 173.341 54.6455 173.341 55.7231C173.341 56.7952 173.505 57.5857 173.833 58.0944C174.167 58.6031 174.665 58.8575 175.327 58.8575C175.989 58.8575 176.484 58.6031 176.812 58.0944C177.146 57.5857 177.312 56.7898 177.312 55.7067C177.312 54.64 177.148 53.8551 176.82 53.3518C176.492 52.8431 175.997 52.5888 175.335 52.5888ZM181.388 60.0554V51.3908H182.972L183.111 52.5149C183.472 52.0718 183.899 51.7354 184.391 51.5057C184.883 51.2759 185.389 51.1611 185.909 51.1611C186.719 51.1611 187.323 51.3881 187.722 51.8421C188.127 52.2906 188.33 52.9224 188.33 53.7375V60.0554H186.492V54.6482C186.492 54.145 186.462 53.7402 186.401 53.4339C186.341 53.1276 186.221 52.906 186.04 52.7693C185.865 52.6325 185.603 52.5641 185.253 52.5641C184.974 52.5641 184.708 52.6243 184.457 52.7447C184.205 52.865 183.975 53.0236 183.768 53.2205C183.56 53.412 183.379 53.6171 183.226 53.8359V60.0554H181.388ZM198.149 59.5959C197.831 59.7983 197.451 59.9624 197.008 60.0882C196.565 60.2141 196.103 60.277 195.622 60.277C194.615 60.277 193.849 60.0171 193.324 59.4975C192.804 58.9723 192.545 58.2831 192.545 57.4298V52.7282H190.616V51.3908H192.545V49.4544L194.383 49.2329V51.3908H197.304L197.098 52.7282H194.383V57.4134C194.383 57.8783 194.497 58.2257 194.727 58.4554C194.962 58.6797 195.345 58.7918 195.876 58.7918C196.193 58.7918 196.486 58.7535 196.754 58.677C197.022 58.6004 197.265 58.5019 197.484 58.3816L198.149 59.5959ZM199.796 63.0585V61.5405H208.001V63.0585H199.796ZM217.549 51.3908L214.497 60.0554H212.347L209.295 51.3908H211.264L213.463 58.5293L215.67 51.3908H217.549ZM224.455 48.7323V59.7272H222.634V50.6195L220.139 52.1539L219.352 50.8657L222.831 48.7323H224.455ZM226.72 58.6113V60.0554H219.869V58.6113H226.72ZM230.878 58.6852C230.878 58.3898 230.946 58.1245 231.083 57.8893C231.225 57.6486 231.416 57.4571 231.657 57.3149C231.898 57.1727 232.166 57.1016 232.461 57.1016C232.762 57.1016 233.033 57.1727 233.273 57.3149C233.514 57.4571 233.703 57.6486 233.84 57.8893C233.982 58.1245 234.053 58.3898 234.053 58.6852C234.053 58.9751 233.982 59.2431 233.84 59.4893C233.703 59.7299 233.514 59.9214 233.273 60.0636C233.033 60.2058 232.762 60.277 232.461 60.277C232.166 60.277 231.898 60.2058 231.657 60.0636C231.416 59.9214 231.225 59.7299 231.083 59.4893C230.946 59.2431 230.878 58.9751 230.878 58.6852ZM241.993 48.5026C243.262 48.5026 244.222 49.0141 244.873 50.037C245.524 51.0599 245.849 52.5067 245.849 54.3775C245.849 56.2537 245.524 57.706 244.873 58.7344C244.222 59.7628 243.262 60.277 241.993 60.277C240.719 60.277 239.756 59.7628 239.105 58.7344C238.459 57.706 238.137 56.2537 238.137 54.3775C238.137 52.5067 238.459 51.0599 239.105 50.037C239.756 49.0141 240.719 48.5026 241.993 48.5026ZM241.993 49.9057C241.342 49.9057 240.842 50.253 240.492 50.9477C240.141 51.637 239.966 52.7802 239.966 54.3775C239.966 55.2308 240.002 55.9474 240.073 56.5272C240.15 57.1016 240.267 57.5611 240.426 57.9057C240.59 58.2503 240.801 58.4992 241.058 58.6523C241.315 58.8 241.627 58.8739 241.993 58.8739C242.431 58.8739 242.8 58.7262 243.101 58.4308C243.402 58.1299 243.629 57.6486 243.782 56.9867C243.94 56.3248 244.02 55.4551 244.02 54.3775C244.02 53.2561 243.951 52.37 243.815 51.719C243.683 51.0626 243.47 50.5976 243.175 50.3241C242.879 50.0452 242.485 49.9057 241.993 49.9057ZM243.519 50.2913L243.995 51.5795L240.615 58.48L240.007 57.438L243.519 50.2913ZM249.925 58.6852C249.925 58.3898 249.993 58.1245 250.13 57.8893C250.272 57.6486 250.464 57.4571 250.705 57.3149C250.945 57.1727 251.213 57.1016 251.509 57.1016C251.809 57.1016 252.08 57.1727 252.321 57.3149C252.562 57.4571 252.75 57.6486 252.887 57.8893C253.029 58.1245 253.1 58.3898 253.1 58.6852C253.1 58.9751 253.029 59.2431 252.887 59.4893C252.75 59.7299 252.562 59.9214 252.321 60.0636C252.08 60.2058 251.809 60.277 251.509 60.277C251.213 60.277 250.945 60.2058 250.705 60.0636C250.464 59.9214 250.272 59.7299 250.13 59.4893C249.993 59.2431 249.925 58.9751 249.925 58.6852ZM261.041 48.5026C262.31 48.5026 263.27 49.0141 263.921 50.037C264.572 51.0599 264.897 52.5067 264.897 54.3775C264.897 56.2537 264.572 57.706 263.921 58.7344C263.27 59.7628 262.31 60.277 261.041 60.277C259.766 60.277 258.803 59.7628 258.152 58.7344C257.507 57.706 257.184 56.2537 257.184 54.3775C257.184 52.5067 257.507 51.0599 258.152 50.037C258.803 49.0141 259.766 48.5026 261.041 48.5026ZM261.041 49.9057C260.39 49.9057 259.889 50.253 259.539 50.9477C259.189 51.637 259.014 52.7802 259.014 54.3775C259.014 55.2308 259.049 55.9474 259.121 56.5272C259.197 57.1016 259.315 57.5611 259.473 57.9057C259.637 58.2503 259.848 58.4992 260.105 58.6523C260.362 58.8 260.674 58.8739 261.041 58.8739C261.478 58.8739 261.847 58.7262 262.148 58.4308C262.449 58.1299 262.676 57.6486 262.829 56.9867C262.988 56.3248 263.067 55.4551 263.067 54.3775C263.067 53.2561 262.999 52.37 262.862 51.719C262.731 51.0626 262.517 50.5976 262.222 50.3241C261.927 50.0452 261.533 49.9057 261.041 49.9057ZM262.567 50.2913L263.043 51.5795L259.662 58.48L259.055 57.438L262.567 50.2913ZM268.973 58.6852C268.973 58.3898 269.041 58.1245 269.178 57.8893C269.32 57.6486 269.511 57.4571 269.752 57.3149C269.993 57.1727 270.261 57.1016 270.556 57.1016C270.857 57.1016 271.128 57.1727 271.368 57.3149C271.609 57.4571 271.798 57.6486 271.935 57.8893C272.077 58.1245 272.148 58.3898 272.148 58.6852C272.148 58.9751 272.077 59.2431 271.935 59.4893C271.798 59.7299 271.609 59.9214 271.368 60.0636C271.128 60.2058 270.857 60.277 270.556 60.277C270.261 60.277 269.993 60.2058 269.752 60.0636C269.511 59.9214 269.32 59.7299 269.178 59.4893C269.041 59.2431 268.973 58.9751 268.973 58.6852ZM281.598 48.7323V59.7272H279.776V50.6195L277.282 52.1539L276.494 50.8657L279.973 48.7323H281.598ZM283.862 58.6113V60.0554H277.011V58.6113H283.862ZM288.02 58.6852C288.02 58.3898 288.088 58.1245 288.225 57.8893C288.367 57.6486 288.559 57.4571 288.8 57.3149C289.04 57.1727 289.308 57.1016 289.604 57.1016C289.904 57.1016 290.175 57.1727 290.416 57.3149C290.657 57.4571 290.845 57.6486 290.982 57.8893C291.124 58.1245 291.195 58.3898 291.195 58.6852C291.195 58.9751 291.124 59.2431 290.982 59.4893C290.845 59.7299 290.657 59.9214 290.416 60.0636C290.175 60.2058 289.904 60.277 289.604 60.277C289.308 60.277 289.04 60.2058 288.8 60.0636C288.559 59.9214 288.367 59.7299 288.225 59.4893C288.088 59.2431 288.02 58.9751 288.02 58.6852ZM297.913 58.5785H302.549L302.352 60.0554H295.706V58.7098L300.317 52.8677H296.075V51.3908H302.491V52.7364L297.913 58.5785ZM309.931 51.3908V58.7098H312.286V60.0554H305.5V58.7098H308.093V52.7364H305.582V51.3908H309.931ZM308.651 47.1488C309.012 47.1488 309.302 47.2582 309.521 47.477C309.745 47.6958 309.857 47.9693 309.857 48.2975C309.857 48.6257 309.745 48.9019 309.521 49.1262C309.302 49.3505 309.012 49.4626 308.651 49.4626C308.301 49.4626 308.014 49.3505 307.79 49.1262C307.565 48.9019 307.453 48.6257 307.453 48.2975C307.453 47.9693 307.565 47.6958 307.79 47.477C308.014 47.2582 308.301 47.1488 308.651 47.1488ZM318.946 51.1611C319.712 51.1611 320.325 51.3498 320.784 51.7272C321.244 52.0992 321.577 52.627 321.785 53.3108C321.993 53.9891 322.097 54.7877 322.097 55.7067C322.097 56.5874 321.971 57.3723 321.719 58.0616C321.468 58.7508 321.093 59.2923 320.595 59.6862C320.103 60.08 319.49 60.277 318.757 60.277C317.849 60.277 317.116 59.957 316.558 59.317V63.3867L314.721 63.5918V51.3908H316.321L316.435 52.5067C316.764 52.0582 317.144 51.7217 317.576 51.4975C318.014 51.2732 318.47 51.1611 318.946 51.1611ZM318.437 52.5805C318.027 52.5805 317.666 52.7036 317.354 52.9498C317.043 53.1959 316.777 53.4858 316.558 53.8195V57.8729C316.766 58.1847 317.012 58.4253 317.297 58.5949C317.587 58.759 317.912 58.8411 318.273 58.8411C318.891 58.8411 319.362 58.5922 319.685 58.0944C320.007 57.5966 320.169 56.8035 320.169 55.7149C320.169 54.9764 320.103 54.3775 319.972 53.918C319.846 53.453 319.655 53.1139 319.397 52.9005C319.146 52.6872 318.826 52.5805 318.437 52.5805Z" fill="white"/>
<path d="M20.708 23.5443C20.708 22.4243 20.612 21.5123 20.42 20.8083C20.236 20.1043 19.976 19.5603 19.64 19.1763C19.312 18.7923 18.924 18.5283 18.476 18.3843C18.028 18.2403 17.544 18.1683 17.024 18.1683H16.184V29.1003H17.024C17.568 29.1003 18.064 29.0163 18.512 28.8483C18.968 28.6723 19.36 28.3803 19.688 27.9723C20.016 27.5563 20.268 26.9883 20.444 26.2683C20.62 25.5483 20.708 24.6403 20.708 23.5443ZM24.788 23.5443C24.788 24.8963 24.644 26.0563 24.356 27.0243C24.068 27.9843 23.664 28.7843 23.144 29.4243C22.632 30.0643 22.036 30.5683 21.356 30.9363C20.676 31.3043 19.944 31.5643 19.16 31.7163C18.376 31.8683 17.568 31.9443 16.736 31.9443H12.248V15.3123H16.448C17.512 15.3123 18.54 15.4243 19.532 15.6483C20.532 15.8643 21.424 16.2683 22.208 16.8603C23 17.4443 23.628 18.2763 24.092 19.3563C24.556 20.4283 24.788 21.8243 24.788 23.5443ZM32.8306 18.7803C34.1426 18.7803 35.2586 19.0603 36.1786 19.6203C37.0986 20.1803 37.8026 20.9683 38.2906 21.9843C38.7786 22.9923 39.0226 24.1763 39.0226 25.5363C39.0226 26.9523 38.7746 28.1723 38.2786 29.1963C37.7906 30.2123 37.0866 30.9923 36.1666 31.5363C35.2466 32.0803 34.1346 32.3523 32.8306 32.3523C31.5346 32.3523 30.4226 32.0843 29.4946 31.5483C28.5746 31.0123 27.8666 30.2363 27.3706 29.2203C26.8826 28.2043 26.6386 26.9843 26.6386 25.5603C26.6386 24.2083 26.8826 23.0243 27.3706 22.0083C27.8666 20.9923 28.5746 20.2003 29.4946 19.6323C30.4226 19.0643 31.5346 18.7803 32.8306 18.7803ZM32.8306 21.5763C32.0546 21.5763 31.4786 21.8963 31.1026 22.5363C30.7346 23.1683 30.5506 24.1763 30.5506 25.5603C30.5506 26.9683 30.7346 27.9883 31.1026 28.6203C31.4786 29.2523 32.0546 29.5683 32.8306 29.5683C33.6066 29.5683 34.1786 29.2523 34.5466 28.6203C34.9226 27.9883 35.1106 26.9603 35.1106 25.5363C35.1106 24.1603 34.9226 23.1563 34.5466 22.5243C34.1786 21.8923 33.6066 21.5763 32.8306 21.5763ZM52.7653 31.9443H48.5772L47.4853 23.3763L46.3452 31.9443H42.2292L40.3452 19.2003H43.8132L44.6412 29.5803L45.9852 20.8083H49.1772L50.3773 29.5803L51.2292 19.2003H54.5773L52.7653 31.9443ZM56.5719 31.9443V19.2003H59.8839L60.1479 20.6763C60.7159 20.0363 61.3159 19.5603 61.9479 19.2483C62.5799 18.9363 63.2999 18.7803 64.1079 18.7803C65.1959 18.7803 66.0519 19.1123 66.6759 19.7763C67.2999 20.4403 67.6119 21.3763 67.6119 22.5843V31.9443H63.8199V23.6763C63.8199 23.1563 63.7839 22.7443 63.7119 22.4403C63.6399 22.1283 63.5119 21.9083 63.3279 21.7803C63.1519 21.6443 62.9079 21.5763 62.5959 21.5763C62.3319 21.5763 62.0719 21.6363 61.8159 21.7563C61.5679 21.8683 61.3239 22.0323 61.0839 22.2483C60.8439 22.4643 60.6039 22.7243 60.3639 23.0283V31.9443H56.5719ZM77.8505 14.1363V27.9363C77.8505 28.4483 77.9945 28.8163 78.2825 29.0403C78.5785 29.2563 78.9825 29.3643 79.4945 29.3643C79.8225 29.3643 80.1385 29.3283 80.4425 29.2563C80.7465 29.1763 81.0305 29.0843 81.2945 28.9803L82.2065 31.5123C81.7745 31.7363 81.2545 31.9323 80.6465 32.1003C80.0385 32.2683 79.3305 32.3523 78.5225 32.3523C76.9865 32.3523 75.8585 31.9123 75.1385 31.0323C74.4185 30.1443 74.0585 28.9563 74.0585 27.4683V16.7283H70.3025V14.1363H77.8505ZM91.3531 18.7803C92.6651 18.7803 93.7811 19.0603 94.7011 19.6203C95.6211 20.1803 96.3251 20.9683 96.8131 21.9843C97.3011 22.9923 97.5451 24.1763 97.5451 25.5363C97.5451 26.9523 97.2971 28.1723 96.8011 29.1963C96.3131 30.2123 95.6091 30.9923 94.6891 31.5363C93.7691 32.0803 92.6571 32.3523 91.3531 32.3523C90.0571 32.3523 88.9451 32.0843 88.0171 31.5483C87.0971 31.0123 86.3891 30.2363 85.8931 29.2203C85.4051 28.2043 85.1611 26.9843 85.1611 25.5603C85.1611 24.2083 85.4051 23.0243 85.8931 22.0083C86.3891 20.9923 87.0971 20.2003 88.0171 19.6323C88.9451 19.0643 90.0571 18.7803 91.3531 18.7803ZM91.3531 21.5763C90.5771 21.5763 90.0011 21.8963 89.6251 22.5363C89.2571 23.1683 89.0731 24.1763 89.0731 25.5603C89.0731 26.9683 89.2571 27.9883 89.6251 28.6203C90.0011 29.2523 90.5771 29.5683 91.3531 29.5683C92.1291 29.5683 92.7011 29.2523 93.0691 28.6203C93.4451 27.9883 93.6331 26.9603 93.6331 25.5363C93.6331 24.1603 93.4451 23.1563 93.0691 22.5243C92.7011 21.8923 92.1291 21.5763 91.3531 21.5763ZM111.192 28.2723C111.192 28.7523 111.256 29.1003 111.384 29.3163C111.52 29.5323 111.736 29.6963 112.032 29.8083L111.252 32.3043C110.5 32.2323 109.864 32.0683 109.344 31.8123C108.832 31.5483 108.428 31.1523 108.132 30.6243C107.644 31.2083 107.02 31.6443 106.26 31.9323C105.5 32.2123 104.724 32.3523 103.932 32.3523C102.62 32.3523 101.572 31.9803 100.788 31.2363C100.012 30.4843 99.6238 29.5203 99.6238 28.3443C99.6238 26.9603 100.164 25.8923 101.244 25.1403C102.332 24.3883 103.86 24.0123 105.828 24.0123H107.544V23.5323C107.544 22.8683 107.328 22.3763 106.896 22.0563C106.472 21.7363 105.848 21.5763 105.024 21.5763C104.616 21.5763 104.092 21.6363 103.452 21.7563C102.812 21.8683 102.172 22.0323 101.532 22.2483L100.656 19.7283C101.48 19.4163 102.336 19.1803 103.224 19.0203C104.12 18.8603 104.92 18.7803 105.624 18.7803C107.52 18.7803 108.92 19.1683 109.824 19.9443C110.736 20.7123 111.192 21.8243 111.192 23.2803V28.2723ZM105.24 29.6403C105.648 29.6403 106.076 29.5203 106.524 29.2803C106.972 29.0323 107.312 28.6843 107.544 28.2363V26.1723H106.608C105.552 26.1723 104.776 26.3363 104.28 26.6643C103.784 26.9843 103.536 27.4563 103.536 28.0803C103.536 28.5683 103.684 28.9523 103.98 29.2323C104.284 29.5043 104.704 29.6403 105.24 29.6403ZM122.342 13.7403L126.134 14.1363V31.9443H122.774L122.582 30.5403C122.23 31.0363 121.762 31.4643 121.178 31.8243C120.594 32.1763 119.886 32.3523 119.054 32.3523C117.998 32.3523 117.122 32.0683 116.426 31.5003C115.738 30.9323 115.222 30.1403 114.878 29.1243C114.542 28.1003 114.374 26.9043 114.374 25.5363C114.374 24.2243 114.578 23.0603 114.986 22.0443C115.394 21.0283 115.978 20.2323 116.738 19.6563C117.498 19.0723 118.402 18.7803 119.45 18.7803C120.018 18.7803 120.546 18.8803 121.034 19.0803C121.522 19.2803 121.958 19.5723 122.342 19.9563V13.7403ZM120.47 21.5523C119.814 21.5523 119.286 21.8643 118.886 22.4883C118.486 23.1043 118.286 24.1283 118.286 25.5603C118.286 26.6083 118.37 27.4243 118.538 28.0083C118.706 28.5843 118.938 28.9883 119.234 29.2203C119.53 29.4523 119.87 29.5683 120.254 29.5683C120.678 29.5683 121.062 29.4363 121.406 29.1723C121.758 28.9083 122.07 28.5483 122.342 28.0923V22.5963C122.078 22.2683 121.798 22.0123 121.502 21.8283C121.206 21.6443 120.862 21.5523 120.47 21.5523ZM151.052 31.9443L146.672 18.5643C146.728 18.9243 146.788 19.3603 146.852 19.8723C146.924 20.3763 146.992 20.9403 147.056 21.5643C147.12 22.1803 147.172 22.8363 147.212 23.5323C147.252 24.2283 147.272 24.9403 147.272 25.6683V31.9443H143.924V15.3123H148.832L153.08 28.6203C152.992 28.1163 152.9 27.5163 152.804 26.8203C152.716 26.1163 152.64 25.3323 152.576 24.4683C152.512 23.6043 152.48 22.6763 152.48 21.6843V15.3123H155.828V31.9443H151.052ZM164.506 18.7803C165.818 18.7803 166.934 19.0603 167.854 19.6203C168.774 20.1803 169.478 20.9683 169.966 21.9843C170.454 22.9923 170.698 24.1763 170.698 25.5363C170.698 26.9523 170.45 28.1723 169.954 29.1963C169.466 30.2123 168.762 30.9923 167.842 31.5363C166.922 32.0803 165.81 32.3523 164.506 32.3523C163.21 32.3523 162.098 32.0843 161.17 31.5483C160.25 31.0123 159.542 30.2363 159.046 29.2203C158.558 28.2043 158.314 26.9843 158.314 25.5603C158.314 24.2083 158.558 23.0243 159.046 22.0083C159.542 20.9923 160.25 20.2003 161.17 19.6323C162.098 19.0643 163.21 18.7803 164.506 18.7803ZM164.506 21.5763C163.73 21.5763 163.154 21.8963 162.778 22.5363C162.41 23.1683 162.226 24.1763 162.226 25.5603C162.226 26.9683 162.41 27.9883 162.778 28.6203C163.154 29.2523 163.73 29.5683 164.506 29.5683C165.282 29.5683 165.854 29.2523 166.222 28.6203C166.598 27.9883 166.786 26.9603 166.786 25.5363C166.786 24.1603 166.598 23.1563 166.222 22.5243C165.854 21.8923 165.282 21.5763 164.506 21.5763ZM184.441 31.9443H180.253L179.161 23.3763L178.021 31.9443H173.905L172.021 19.2003H175.489L176.317 29.5803L177.661 20.8083H180.853L182.053 29.5803L182.905 19.2003H186.253L184.441 31.9443Z" fill="#0071DB"/>
</svg>
