<svg width="233" height="45" viewBox="0 0 233 45" fill="none" xmlns="http://www.w3.org/2000/svg">
<rect x="0.5" y="0.5" width="232" height="44" rx="6.5" fill="#29313C"/>
<rect x="0.5" y="0.5" width="232" height="44" rx="6.5" stroke="#006ACD"/>
<path d="M12.1077 25.3238L15.0154 28.57L12.1077 31.8161L11.3077 31.1341L12.4923 29.8366C12.6325 29.6828 12.7726 29.5409 12.9128 29.411C13.0564 29.2777 13.2051 29.1597 13.359 29.0572H9.13846V28.0828H13.3641C13.2513 28.0076 13.1487 27.9341 13.0564 27.8623C12.9675 27.7905 12.8786 27.7101 12.7897 27.6213C12.7043 27.529 12.6051 27.423 12.4923 27.3033L11.3077 26.0059L12.1077 25.3238ZM19.4908 27.0982C19.4908 26.7734 19.4276 26.5136 19.3011 26.3187C19.178 26.1238 19.0019 25.9819 18.7729 25.8931C18.5472 25.8042 18.2805 25.7597 17.9729 25.7597H17.1216V28.5136H17.9882C18.2857 28.5136 18.5472 28.4691 18.7729 28.3802C18.9985 28.2913 19.1746 28.1443 19.3011 27.9392C19.4276 27.7341 19.4908 27.4537 19.4908 27.0982ZM20.7421 27.0879C20.7421 27.6384 20.6241 28.0845 20.3882 28.4264C20.1558 28.7683 19.831 29.0195 19.4139 29.1802C18.9968 29.3409 18.5182 29.4213 17.978 29.4213H17.1216V31.9443H15.9318V24.8674H17.8959C18.7848 24.8674 19.4805 25.0503 19.9831 25.4161C20.4891 25.7785 20.7421 26.3358 20.7421 27.0879ZM21.8688 31.9443V31.1238H22.6637V27.3443H21.8688V26.529H23.5406L23.7508 27.7854C23.9526 27.3307 24.2021 26.9854 24.4996 26.7495C24.8004 26.5101 25.1867 26.3905 25.6585 26.3905C25.8192 26.3905 25.9628 26.4042 26.0893 26.4315C26.2192 26.4554 26.3474 26.4879 26.4739 26.529L26.1303 27.5136C26.0209 27.4828 25.9184 27.4606 25.8226 27.4469C25.7269 27.4298 25.6209 27.4213 25.5047 27.4213C25.1115 27.4213 24.7714 27.5683 24.4842 27.8623C24.2004 28.1563 23.9765 28.5734 23.8124 29.1136V31.1238H24.9047V31.9443H21.8688ZM25.4585 28.5238V27.1905L25.6021 26.529H26.4739L26.279 28.5238H25.4585ZM29.9391 26.3854C30.469 26.3854 30.9152 26.5033 31.2775 26.7392C31.6399 26.9751 31.9134 27.305 32.0981 27.729C32.2861 28.1529 32.3801 28.652 32.3801 29.2264C32.3801 29.7973 32.2844 30.2982 32.0929 30.729C31.9049 31.1563 31.628 31.4896 31.2622 31.729C30.8998 31.9648 30.457 32.0828 29.934 32.0828C29.4109 32.0828 28.9664 31.9683 28.6006 31.7392C28.2382 31.5067 27.9613 31.1768 27.7699 30.7495C27.5818 30.3221 27.4878 29.8178 27.4878 29.2366C27.4878 28.6725 27.5818 28.1768 27.7699 27.7495C27.9613 27.3221 28.2399 26.9888 28.6057 26.7495C28.9716 26.5067 29.416 26.3854 29.9391 26.3854ZM29.9391 27.2777C29.5254 27.2777 29.2143 27.4366 29.0057 27.7546C28.7972 28.0691 28.6929 28.5631 28.6929 29.2366C28.6929 29.9067 28.7955 30.4007 29.0006 30.7187C29.2092 31.0366 29.5203 31.1956 29.934 31.1956C30.3476 31.1956 30.657 31.0366 30.8622 30.7187C31.0707 30.4007 31.175 29.9033 31.175 29.2264C31.175 28.5597 31.0724 28.0691 30.8673 27.7546C30.6622 27.4366 30.3528 27.2777 29.9391 27.2777ZM38.2812 25.8418L38.5889 26.7956C38.3735 26.8674 38.1359 26.9153 37.876 26.9392C37.6196 26.9631 37.3325 26.9751 37.0145 26.9751C37.3393 27.1187 37.5837 27.3033 37.7478 27.529C37.9119 27.7512 37.994 28.0247 37.994 28.3495C37.994 28.7016 37.9085 29.0161 37.7376 29.2931C37.5666 29.57 37.3222 29.7871 37.0042 29.9443C36.6863 30.1016 36.3051 30.1802 35.8607 30.1802C35.7034 30.1802 35.5666 30.1734 35.4504 30.1597C35.3376 30.146 35.2265 30.1238 35.1171 30.0931C35.0487 30.1409 34.9906 30.2059 34.9427 30.2879C34.8983 30.3666 34.876 30.4503 34.876 30.5392C34.876 30.6486 34.9205 30.7443 35.0094 30.8264C35.1017 30.905 35.2829 30.9443 35.553 30.9443H36.4966C36.8829 30.9443 37.2231 31.011 37.5171 31.1443C37.8145 31.2743 38.047 31.4537 38.2145 31.6828C38.3854 31.9084 38.4709 32.1648 38.4709 32.452C38.4709 32.9922 38.2384 33.411 37.7735 33.7084C37.3085 34.0059 36.6384 34.1546 35.7632 34.1546C35.1444 34.1546 34.6589 34.0913 34.3068 33.9648C33.9547 33.8384 33.7068 33.6503 33.5632 33.4007C33.4196 33.1512 33.3478 32.8452 33.3478 32.4828H34.3786C34.3786 32.6708 34.4145 32.8264 34.4863 32.9495C34.5615 33.0725 34.7 33.1648 34.9017 33.2264C35.1034 33.2879 35.394 33.3187 35.7735 33.3187C36.153 33.3187 36.4538 33.2862 36.676 33.2213C36.9017 33.1597 37.0641 33.0691 37.1632 32.9495C37.2658 32.8332 37.3171 32.6931 37.3171 32.529C37.3171 32.3101 37.2213 32.1409 37.0299 32.0213C36.8384 31.9016 36.582 31.8418 36.2607 31.8418H35.3325C34.8196 31.8418 34.4436 31.7375 34.2042 31.529C33.9684 31.3204 33.8504 31.0777 33.8504 30.8007C33.8504 30.6161 33.9017 30.4384 34.0042 30.2674C34.1102 30.0965 34.2607 29.9478 34.4555 29.8213C34.1307 29.6503 33.8931 29.4435 33.7427 29.2007C33.5957 28.9546 33.5222 28.6572 33.5222 28.3084C33.5222 27.9255 33.6179 27.5905 33.8094 27.3033C34.0008 27.0161 34.2658 26.7922 34.6042 26.6315C34.9461 26.4708 35.3393 26.3905 35.7837 26.3905C36.2179 26.3905 36.5803 26.3683 36.8709 26.3238C37.1615 26.276 37.4145 26.2093 37.6299 26.1238C37.8487 26.0384 38.0658 25.9443 38.2812 25.8418ZM35.794 27.1802C35.4282 27.1802 35.153 27.2845 34.9684 27.4931C34.7837 27.6982 34.6914 27.9666 34.6914 28.2982C34.6914 28.6401 34.7854 28.9153 34.9735 29.1238C35.1649 29.329 35.4436 29.4315 35.8094 29.4315C36.1478 29.4315 36.406 29.3324 36.5837 29.1341C36.7649 28.9358 36.8555 28.6537 36.8555 28.2879C36.8555 27.9187 36.7666 27.6418 36.5889 27.4572C36.4111 27.2725 36.1461 27.1802 35.794 27.1802ZM39.7258 31.9443V31.1238H40.5207V27.3443H39.7258V26.529H41.3976L41.6079 27.7854C41.8096 27.3307 42.0592 26.9854 42.3566 26.7495C42.6574 26.5101 43.0438 26.3905 43.5156 26.3905C43.6762 26.3905 43.8198 26.4042 43.9463 26.4315C44.0762 26.4554 44.2045 26.4879 44.3309 26.529L43.9874 27.5136C43.878 27.4828 43.7754 27.4606 43.6797 27.4469C43.5839 27.4298 43.478 27.4213 43.3617 27.4213C42.9686 27.4213 42.6284 27.5683 42.3412 27.8623C42.0574 28.1563 41.8335 28.5734 41.6694 29.1136V31.1238H42.7617V31.9443H39.7258ZM43.3156 28.5238V27.1905L43.4592 26.529H44.3309L44.1361 28.5238H43.3156ZM49.7653 30.6161C49.7653 30.8281 49.7978 30.9837 49.8628 31.0828C49.9277 31.1785 50.032 31.2503 50.1756 31.2982L49.9192 32.0777C49.6525 32.0469 49.4235 31.9734 49.232 31.8572C49.0406 31.7409 48.8953 31.5648 48.7961 31.329C48.5978 31.5785 48.3465 31.7666 48.0423 31.8931C47.738 32.0195 47.4132 32.0828 47.0679 32.0828C46.5209 32.0828 46.0867 31.929 45.7653 31.6213C45.4474 31.3101 45.2884 30.9033 45.2884 30.4007C45.2884 29.8298 45.5106 29.3905 45.9551 29.0828C46.3995 28.7751 47.0354 28.6213 47.8628 28.6213H48.6371V28.2674C48.6371 27.9187 48.5312 27.6674 48.3192 27.5136C48.1106 27.3597 47.8149 27.2828 47.432 27.2828C47.2542 27.2828 47.0388 27.3067 46.7859 27.3546C46.5329 27.399 46.2679 27.4691 45.991 27.5648L45.7089 26.7546C46.0474 26.6281 46.379 26.5358 46.7038 26.4777C47.0286 26.4161 47.3294 26.3854 47.6064 26.3854C48.3312 26.3854 48.8713 26.546 49.2269 26.8674C49.5859 27.1888 49.7653 27.6332 49.7653 28.2007V30.6161ZM47.4166 31.2366C47.6491 31.2366 47.8765 31.1751 48.0987 31.052C48.3209 30.929 48.5004 30.7563 48.6371 30.5341V29.3392H48.0012C47.4611 29.3392 47.0747 29.4298 46.8423 29.611C46.6098 29.7888 46.4935 30.0349 46.4935 30.3495C46.4935 30.6366 46.5705 30.8572 46.7243 31.011C46.8816 31.1614 47.1124 31.2366 47.4166 31.2366ZM55.3126 26.3854C55.5177 26.3854 55.7023 26.4298 55.8664 26.5187C56.0305 26.6076 56.1587 26.7631 56.251 26.9854C56.3467 27.2076 56.3946 27.5187 56.3946 27.9187V31.9443H55.3741V28.0777C55.3741 27.7939 55.3536 27.5905 55.3126 27.4674C55.275 27.3443 55.1741 27.2828 55.01 27.2828C54.8801 27.2828 54.7485 27.3238 54.6151 27.4059C54.4818 27.4845 54.3467 27.6213 54.21 27.8161V31.9443H53.2818V28.0777C53.2818 27.7939 53.2613 27.5905 53.2203 27.4674C53.1826 27.3443 53.0818 27.2828 52.9177 27.2828C52.7844 27.2828 52.651 27.3238 52.5177 27.4059C52.3878 27.4845 52.2544 27.6213 52.1177 27.8161V31.9443H51.092V26.529H51.9587L52.0356 27.1136C52.1895 26.8982 52.357 26.7238 52.5382 26.5905C52.7194 26.4537 52.9382 26.3854 53.1946 26.3854C53.3997 26.3854 53.5861 26.4366 53.7536 26.5392C53.9211 26.6418 54.0442 26.8213 54.1228 27.0777C54.2732 26.8725 54.4442 26.7067 54.6356 26.5802C54.8271 26.4503 55.0527 26.3854 55.3126 26.3854ZM61.2649 26.3854C61.47 26.3854 61.6546 26.4298 61.8188 26.5187C61.9829 26.6076 62.1111 26.7631 62.2034 26.9854C62.2991 27.2076 62.347 27.5187 62.347 27.9187V31.9443H61.3264V28.0777C61.3264 27.7939 61.3059 27.5905 61.2649 27.4674C61.2273 27.3443 61.1264 27.2828 60.9623 27.2828C60.8324 27.2828 60.7008 27.3238 60.5675 27.4059C60.4341 27.4845 60.2991 27.6213 60.1623 27.8161V31.9443H59.2341V28.0777C59.2341 27.7939 59.2136 27.5905 59.1726 27.4674C59.135 27.3443 59.0341 27.2828 58.87 27.2828C58.7367 27.2828 58.6034 27.3238 58.47 27.4059C58.3401 27.4845 58.2068 27.6213 58.07 27.8161V31.9443H57.0444V26.529H57.9111L57.988 27.1136C58.1418 26.8982 58.3093 26.7238 58.4905 26.5905C58.6717 26.4537 58.8905 26.3854 59.147 26.3854C59.3521 26.3854 59.5384 26.4366 59.7059 26.5392C59.8735 26.6418 59.9965 26.8213 60.0752 27.0777C60.2256 26.8725 60.3965 26.7067 60.588 26.5802C60.7794 26.4503 61.0051 26.3854 61.2649 26.3854ZM66.4429 26.529V31.1033H67.9147V31.9443H63.6737V31.1033H65.2942V27.37H63.7249V26.529H66.4429ZM65.6429 23.8777C65.8685 23.8777 66.0497 23.946 66.1865 24.0828C66.3266 24.2196 66.3967 24.3905 66.3967 24.5956C66.3967 24.8007 66.3266 24.9734 66.1865 25.1136C66.0497 25.2537 65.8685 25.3238 65.6429 25.3238C65.4241 25.3238 65.2446 25.2537 65.1044 25.1136C64.9643 24.9734 64.8942 24.8007 64.8942 24.5956C64.8942 24.3905 64.9643 24.2196 65.1044 24.0828C65.2446 23.946 65.4241 23.8777 65.6429 23.8777ZM69.4363 31.9443V26.529H70.426L70.5132 27.2315C70.7388 26.9546 71.0055 26.7443 71.3132 26.6007C71.6209 26.4572 71.9371 26.3854 72.2619 26.3854C72.7679 26.3854 73.1457 26.5272 73.3952 26.811C73.6482 27.0913 73.7747 27.4862 73.7747 27.9956V31.9443H72.626V28.5648C72.626 28.2503 72.6072 27.9973 72.5696 27.8059C72.532 27.6144 72.4568 27.476 72.344 27.3905C72.2345 27.305 72.0704 27.2623 71.8516 27.2623C71.6773 27.2623 71.5115 27.2999 71.3542 27.3751C71.1969 27.4503 71.0534 27.5495 70.9234 27.6725C70.7935 27.7922 70.6807 27.9204 70.585 28.0572V31.9443H69.4363ZM79.9476 25.8418L80.2553 26.7956C80.0399 26.8674 79.8023 26.9153 79.5425 26.9392C79.286 26.9631 78.9989 26.9751 78.6809 26.9751C79.0057 27.1187 79.2501 27.3033 79.4142 27.529C79.5783 27.7512 79.6604 28.0247 79.6604 28.3495C79.6604 28.7016 79.5749 29.0161 79.404 29.2931C79.233 29.57 78.9886 29.7871 78.6707 29.9443C78.3527 30.1016 77.9715 30.1802 77.5271 30.1802C77.3698 30.1802 77.233 30.1734 77.1168 30.1597C77.004 30.146 76.8929 30.1238 76.7835 30.0931C76.7151 30.1409 76.657 30.2059 76.6091 30.2879C76.5647 30.3666 76.5425 30.4503 76.5425 30.5392C76.5425 30.6486 76.5869 30.7443 76.6758 30.8264C76.7681 30.905 76.9493 30.9443 77.2194 30.9443H78.163C78.5493 30.9443 78.8895 31.011 79.1835 31.1443C79.4809 31.2743 79.7134 31.4537 79.8809 31.6828C80.0519 31.9084 80.1373 32.1648 80.1373 32.452C80.1373 32.9922 79.9048 33.411 79.4399 33.7084C78.9749 34.0059 78.3048 34.1546 77.4296 34.1546C76.8108 34.1546 76.3254 34.0913 75.9732 33.9648C75.6211 33.8384 75.3732 33.6503 75.2296 33.4007C75.086 33.1512 75.0142 32.8452 75.0142 32.4828H76.045C76.045 32.6708 76.0809 32.8264 76.1527 32.9495C76.2279 33.0725 76.3664 33.1648 76.5681 33.2264C76.7698 33.2879 77.0604 33.3187 77.4399 33.3187C77.8194 33.3187 78.1202 33.2862 78.3425 33.2213C78.5681 33.1597 78.7305 33.0691 78.8296 32.9495C78.9322 32.8332 78.9835 32.6931 78.9835 32.529C78.9835 32.3101 78.8878 32.1409 78.6963 32.0213C78.5048 31.9016 78.2484 31.8418 77.9271 31.8418H76.9989C76.486 31.8418 76.11 31.7375 75.8707 31.529C75.6348 31.3204 75.5168 31.0777 75.5168 30.8007C75.5168 30.6161 75.5681 30.4384 75.6707 30.2674C75.7766 30.0965 75.9271 29.9478 76.1219 29.8213C75.7972 29.6503 75.5595 29.4435 75.4091 29.2007C75.2621 28.9546 75.1886 28.6572 75.1886 28.3084C75.1886 27.9255 75.2843 27.5905 75.4758 27.3033C75.6672 27.0161 75.9322 26.7922 76.2707 26.6315C76.6125 26.4708 77.0057 26.3905 77.4501 26.3905C77.8843 26.3905 78.2467 26.3683 78.5373 26.3238C78.8279 26.276 79.0809 26.2093 79.2963 26.1238C79.5151 26.0384 79.7322 25.9443 79.9476 25.8418ZM77.4604 27.1802C77.0946 27.1802 76.8194 27.2845 76.6348 27.4931C76.4501 27.6982 76.3578 27.9666 76.3578 28.2982C76.3578 28.6401 76.4519 28.9153 76.6399 29.1238C76.8313 29.329 77.11 29.4315 77.4758 29.4315C77.8142 29.4315 78.0724 29.3324 78.2501 29.1341C78.4313 28.9358 78.5219 28.6537 78.5219 28.2879C78.5219 27.9187 78.433 27.6418 78.2553 27.4572C78.0775 27.2725 77.8125 27.1802 77.4604 27.1802ZM81.6538 31.9443V24.8674H82.8435V30.9495H86.0127L85.8845 31.9443H81.6538ZM90.2523 26.529V31.1033H91.7241V31.9443H87.483V31.1033H89.1035V27.37H87.5343V26.529H90.2523ZM89.4523 23.8777C89.6779 23.8777 89.8591 23.946 89.9959 24.0828C90.136 24.2196 90.2061 24.3905 90.2061 24.5956C90.2061 24.8007 90.136 24.9734 89.9959 25.1136C89.8591 25.2537 89.6779 25.3238 89.4523 25.3238C89.2335 25.3238 89.054 25.2537 88.9138 25.1136C88.7736 24.9734 88.7035 24.8007 88.7035 24.5956C88.7035 24.3905 88.7736 24.2196 88.9138 24.0828C89.054 23.946 89.2335 23.8777 89.4523 23.8777ZM97.8046 25.8418L98.1123 26.7956C97.8969 26.8674 97.6593 26.9153 97.3995 26.9392C97.1431 26.9631 96.8559 26.9751 96.5379 26.9751C96.8627 27.1187 97.1072 27.3033 97.2713 27.529C97.4354 27.7512 97.5174 28.0247 97.5174 28.3495C97.5174 28.7016 97.432 29.0161 97.261 29.2931C97.0901 29.57 96.8456 29.7871 96.5277 29.9443C96.2097 30.1016 95.8285 30.1802 95.3841 30.1802C95.2268 30.1802 95.0901 30.1734 94.9738 30.1597C94.861 30.146 94.7499 30.1238 94.6405 30.0931C94.5721 30.1409 94.514 30.2059 94.4661 30.2879C94.4217 30.3666 94.3995 30.4503 94.3995 30.5392C94.3995 30.6486 94.4439 30.7443 94.5328 30.8264C94.6251 30.905 94.8063 30.9443 95.0764 30.9443H96.02C96.4063 30.9443 96.7465 31.011 97.0405 31.1443C97.3379 31.2743 97.5704 31.4537 97.7379 31.6828C97.9089 31.9084 97.9943 32.1648 97.9943 32.452C97.9943 32.9922 97.7619 33.411 97.2969 33.7084C96.832 34.0059 96.1619 34.1546 95.2867 34.1546C94.6679 34.1546 94.1824 34.0913 93.8302 33.9648C93.4781 33.8384 93.2302 33.6503 93.0867 33.4007C92.9431 33.1512 92.8713 32.8452 92.8713 32.4828H93.902C93.902 32.6708 93.9379 32.8264 94.0097 32.9495C94.0849 33.0725 94.2234 33.1648 94.4251 33.2264C94.6268 33.2879 94.9174 33.3187 95.2969 33.3187C95.6764 33.3187 95.9773 33.2862 96.1995 33.2213C96.4251 33.1597 96.5875 33.0691 96.6867 32.9495C96.7892 32.8332 96.8405 32.6931 96.8405 32.529C96.8405 32.3101 96.7448 32.1409 96.5533 32.0213C96.3619 31.9016 96.1055 31.8418 95.7841 31.8418H94.8559C94.3431 31.8418 93.967 31.7375 93.7277 31.529C93.4918 31.3204 93.3738 31.0777 93.3738 30.8007C93.3738 30.6161 93.4251 30.4384 93.5277 30.2674C93.6337 30.0965 93.7841 29.9478 93.979 29.8213C93.6542 29.6503 93.4166 29.4435 93.2661 29.2007C93.1191 28.9546 93.0456 28.6572 93.0456 28.3084C93.0456 27.9255 93.1414 27.5905 93.3328 27.3033C93.5243 27.0161 93.7892 26.7922 94.1277 26.6315C94.4696 26.4708 94.8627 26.3905 95.3072 26.3905C95.7414 26.3905 96.1037 26.3683 96.3943 26.3238C96.6849 26.276 96.9379 26.2093 97.1533 26.1238C97.3721 26.0384 97.5892 25.9443 97.8046 25.8418ZM95.3174 27.1802C94.9516 27.1802 94.6764 27.2845 94.4918 27.4931C94.3072 27.6982 94.2149 27.9666 94.2149 28.2982C94.2149 28.6401 94.3089 28.9153 94.4969 29.1238C94.6884 29.329 94.967 29.4315 95.3328 29.4315C95.6713 29.4315 95.9294 29.3324 96.1072 29.1341C96.2884 28.9358 96.379 28.6537 96.379 28.2879C96.379 27.9187 96.2901 27.6418 96.1123 27.4572C95.9345 27.2725 95.6696 27.1802 95.3174 27.1802ZM103.336 30.6161C103.336 30.8281 103.369 30.9837 103.434 31.0828C103.499 31.1785 103.603 31.2503 103.747 31.2982L103.49 32.0777C103.224 32.0469 102.995 31.9734 102.803 31.8572C102.612 31.7409 102.466 31.5648 102.367 31.329C102.169 31.5785 101.918 31.7666 101.613 31.8931C101.309 32.0195 100.984 32.0828 100.639 32.0828C100.092 32.0828 99.6578 31.929 99.3364 31.6213C99.0185 31.3101 98.8595 30.9033 98.8595 30.4007C98.8595 29.8298 99.0817 29.3905 99.5262 29.0828C99.9706 28.7751 100.607 28.6213 101.434 28.6213H102.208V28.2674C102.208 27.9187 102.102 27.6674 101.89 27.5136C101.682 27.3597 101.386 27.2828 101.003 27.2828C100.825 27.2828 100.61 27.3067 100.357 27.3546C100.104 27.399 99.839 27.4691 99.5621 27.5648L99.28 26.7546C99.6185 26.6281 99.9501 26.5358 100.275 26.4777C100.6 26.4161 100.901 26.3854 101.177 26.3854C101.902 26.3854 102.442 26.546 102.798 26.8674C103.157 27.1888 103.336 27.6332 103.336 28.2007V30.6161ZM100.988 31.2366C101.22 31.2366 101.448 31.1751 101.67 31.052C101.892 30.929 102.071 30.7563 102.208 30.5341V29.3392H101.572C101.032 29.3392 100.646 29.4298 100.413 29.611C100.181 29.7888 100.065 30.0349 100.065 30.3495C100.065 30.6366 100.142 30.8572 100.295 31.011C100.453 31.1614 100.683 31.2366 100.988 31.2366ZM106.73 25.77V28.0213H109.391V28.9238H106.73V31.9443H105.54V24.8674H109.894L109.761 25.77H106.73ZM113.272 26.3854C113.802 26.3854 114.248 26.5033 114.61 26.7392C114.973 26.9751 115.246 27.305 115.431 27.729C115.619 28.1529 115.713 28.652 115.713 29.2264C115.713 29.7973 115.617 30.2982 115.426 30.729C115.238 31.1563 114.961 31.4896 114.595 31.729C114.233 31.9648 113.79 32.0828 113.267 32.0828C112.744 32.0828 112.299 31.9683 111.933 31.7392C111.571 31.5067 111.294 31.1768 111.103 30.7495C110.915 30.3221 110.821 29.8178 110.821 29.2366C110.821 28.6725 110.915 28.1768 111.103 27.7495C111.294 27.3221 111.573 26.9888 111.939 26.7495C112.304 26.5067 112.749 26.3854 113.272 26.3854ZM113.272 27.2777C112.858 27.2777 112.547 27.4366 112.339 27.7546C112.13 28.0691 112.026 28.5631 112.026 29.2366C112.026 29.9067 112.128 30.4007 112.333 30.7187C112.542 31.0366 112.853 31.1956 113.267 31.1956C113.68 31.1956 113.99 31.0366 114.195 30.7187C114.404 30.4007 114.508 29.9033 114.508 29.2264C114.508 28.5597 114.405 28.0691 114.2 27.7546C113.995 27.4366 113.686 27.2777 113.272 27.2777ZM117.055 31.9443V26.529H118.045L118.132 27.2315C118.358 26.9546 118.624 26.7443 118.932 26.6007C119.24 26.4572 119.556 26.3854 119.881 26.3854C120.387 26.3854 120.764 26.5272 121.014 26.811C121.267 27.0913 121.393 27.4862 121.393 27.9956V31.9443H120.245V28.5648C120.245 28.2503 120.226 27.9973 120.188 27.8059C120.151 27.6144 120.076 27.476 119.963 27.3905C119.853 27.305 119.689 27.2623 119.47 27.2623C119.296 27.2623 119.13 27.2999 118.973 27.3751C118.816 27.4503 118.672 27.5495 118.542 27.6725C118.412 27.7922 118.299 27.9204 118.204 28.0572V31.9443H117.055ZM127.53 31.6572C127.332 31.7837 127.095 31.8862 126.818 31.9648C126.541 32.0435 126.252 32.0828 125.951 32.0828C125.322 32.0828 124.843 31.9204 124.515 31.5956C124.19 31.2674 124.028 30.8366 124.028 30.3033V27.3648H122.823V26.529H124.028V25.3187L125.177 25.1802V26.529H127.002L126.874 27.3648H125.177V30.2931C125.177 30.5837 125.248 30.8007 125.392 30.9443C125.539 31.0845 125.778 31.1546 126.11 31.1546C126.308 31.1546 126.491 31.1307 126.659 31.0828C126.826 31.0349 126.978 30.9734 127.115 30.8982L127.53 31.6572ZM128.56 33.8213V32.8725H133.688V33.8213H128.56ZM139.656 26.529L137.748 31.9443H136.404L134.497 26.529H135.727L137.102 30.9905L138.481 26.529H139.656ZM143.972 24.8674V31.7392H142.834V26.0469L141.275 27.0059L140.782 26.2007L142.957 24.8674H143.972ZM145.387 31.0418V31.9443H141.105V31.0418H145.387ZM147.986 31.0879C147.986 30.9033 148.029 30.7375 148.114 30.5905C148.203 30.4401 148.323 30.3204 148.473 30.2315C148.624 30.1426 148.791 30.0982 148.976 30.0982C149.164 30.0982 149.333 30.1426 149.483 30.2315C149.634 30.3204 149.752 30.4401 149.837 30.5905C149.926 30.7375 149.971 30.9033 149.971 31.0879C149.971 31.2691 149.926 31.4366 149.837 31.5905C149.752 31.7409 149.634 31.8606 149.483 31.9495C149.333 32.0384 149.164 32.0828 148.976 32.0828C148.791 32.0828 148.624 32.0384 148.473 31.9495C148.323 31.8606 148.203 31.7409 148.114 31.5905C148.029 31.4366 147.986 31.2691 147.986 31.0879ZM154.933 24.7238C155.726 24.7238 156.326 25.0435 156.733 25.6828C157.14 26.3221 157.343 27.2264 157.343 28.3956C157.343 29.5683 157.14 30.476 156.733 31.1187C156.326 31.7614 155.726 32.0828 154.933 32.0828C154.137 32.0828 153.535 31.7614 153.128 31.1187C152.725 30.476 152.523 29.5683 152.523 28.3956C152.523 27.2264 152.725 26.3221 153.128 25.6828C153.535 25.0435 154.137 24.7238 154.933 24.7238ZM154.933 25.6007C154.526 25.6007 154.214 25.8178 153.995 26.252C153.776 26.6828 153.667 27.3973 153.667 28.3956C153.667 28.929 153.689 29.3768 153.733 29.7392C153.781 30.0982 153.855 30.3854 153.954 30.6007C154.056 30.8161 154.188 30.9717 154.349 31.0674C154.509 31.1597 154.704 31.2059 154.933 31.2059C155.207 31.2059 155.437 31.1136 155.625 30.929C155.814 30.7409 155.955 30.4401 156.051 30.0264C156.15 29.6127 156.2 29.0691 156.2 28.3956C156.2 27.6948 156.157 27.1409 156.072 26.7341C155.99 26.3238 155.856 26.0332 155.672 25.8623C155.487 25.6879 155.241 25.6007 154.933 25.6007ZM155.887 25.8418L156.184 26.6469L154.072 30.9597L153.692 30.3084L155.887 25.8418ZM159.891 31.0879C159.891 30.9033 159.933 30.7375 160.019 30.5905C160.108 30.4401 160.227 30.3204 160.378 30.2315C160.528 30.1426 160.696 30.0982 160.88 30.0982C161.068 30.0982 161.238 30.1426 161.388 30.2315C161.539 30.3204 161.656 30.4401 161.742 30.5905C161.831 30.7375 161.875 30.9033 161.875 31.0879C161.875 31.2691 161.831 31.4366 161.742 31.5905C161.656 31.7409 161.539 31.8606 161.388 31.9495C161.238 32.0384 161.068 32.0828 160.88 32.0828C160.696 32.0828 160.528 32.0384 160.378 31.9495C160.227 31.8606 160.108 31.7409 160.019 31.5905C159.933 31.4366 159.891 31.2691 159.891 31.0879ZM166.838 24.7238C167.631 24.7238 168.231 25.0435 168.638 25.6828C169.045 26.3221 169.248 27.2264 169.248 28.3956C169.248 29.5683 169.045 30.476 168.638 31.1187C168.231 31.7614 167.631 32.0828 166.838 32.0828C166.041 32.0828 165.44 31.7614 165.033 31.1187C164.629 30.476 164.428 29.5683 164.428 28.3956C164.428 27.2264 164.629 26.3221 165.033 25.6828C165.44 25.0435 166.041 24.7238 166.838 24.7238ZM166.838 25.6007C166.431 25.6007 166.118 25.8178 165.899 26.252C165.681 26.6828 165.571 27.3973 165.571 28.3956C165.571 28.929 165.593 29.3768 165.638 29.7392C165.686 30.0982 165.759 30.3854 165.858 30.6007C165.961 30.8161 166.093 30.9717 166.253 31.0674C166.414 31.1597 166.609 31.2059 166.838 31.2059C167.111 31.2059 167.342 31.1136 167.53 30.929C167.718 30.7409 167.86 30.4401 167.956 30.0264C168.055 29.6127 168.105 29.0691 168.105 28.3956C168.105 27.6948 168.062 27.1409 167.976 26.7341C167.894 26.3238 167.761 26.0332 167.576 25.8623C167.392 25.6879 167.146 25.6007 166.838 25.6007ZM167.792 25.8418L168.089 26.6469L165.976 30.9597L165.597 30.3084L167.792 25.8418ZM171.795 31.0879C171.795 30.9033 171.838 30.7375 171.924 30.5905C172.012 30.4401 172.132 30.3204 172.283 30.2315C172.433 30.1426 172.6 30.0982 172.785 30.0982C172.973 30.0982 173.142 30.1426 173.293 30.2315C173.443 30.3204 173.561 30.4401 173.647 30.5905C173.736 30.7375 173.78 30.9033 173.78 31.0879C173.78 31.2691 173.736 31.4366 173.647 31.5905C173.561 31.7409 173.443 31.8606 173.293 31.9495C173.142 32.0384 172.973 32.0828 172.785 32.0828C172.6 32.0828 172.433 32.0384 172.283 31.9495C172.132 31.8606 172.012 31.7409 171.924 31.5905C171.838 31.4366 171.795 31.2691 171.795 31.0879ZM179.686 24.8674V31.7392H178.548V26.0469L176.989 27.0059L176.496 26.2007L178.671 24.8674H179.686ZM181.102 31.0418V31.9443H176.819V31.0418H181.102ZM183.7 31.0879C183.7 30.9033 183.743 30.7375 183.828 30.5905C183.917 30.4401 184.037 30.3204 184.187 30.2315C184.338 30.1426 184.505 30.0982 184.69 30.0982C184.878 30.0982 185.047 30.1426 185.197 30.2315C185.348 30.3204 185.466 30.4401 185.551 30.5905C185.64 30.7375 185.685 30.9033 185.685 31.0879C185.685 31.2691 185.64 31.4366 185.551 31.5905C185.466 31.7409 185.348 31.8606 185.197 31.9495C185.047 32.0384 184.878 32.0828 184.69 32.0828C184.505 32.0828 184.338 32.0384 184.187 31.9495C184.037 31.8606 183.917 31.7409 183.828 31.5905C183.743 31.4366 183.7 31.2691 183.7 31.0879ZM189.883 31.0213H192.781L192.657 31.9443H188.504V31.1033L191.386 27.452H188.734V26.529H192.745V27.37L189.883 31.0213ZM197.394 26.529V31.1033H198.866V31.9443H194.625V31.1033H196.246V27.37H194.677V26.529H197.394ZM196.594 23.8777C196.82 23.8777 197.001 23.946 197.138 24.0828C197.278 24.2196 197.348 24.3905 197.348 24.5956C197.348 24.8007 197.278 24.9734 197.138 25.1136C197.001 25.2537 196.82 25.3238 196.594 25.3238C196.376 25.3238 196.196 25.2537 196.056 25.1136C195.916 24.9734 195.846 24.8007 195.846 24.5956C195.846 24.3905 195.916 24.2196 196.056 24.0828C196.196 23.946 196.376 23.8777 196.594 23.8777ZM203.029 26.3854C203.507 26.3854 203.89 26.5033 204.178 26.7392C204.465 26.9717 204.673 27.3016 204.803 27.729C204.933 28.1529 204.998 28.652 204.998 29.2264C204.998 29.7768 204.919 30.2674 204.762 30.6982C204.605 31.129 204.371 31.4674 204.06 31.7136C203.752 31.9597 203.369 32.0828 202.911 32.0828C202.343 32.0828 201.885 31.8828 201.537 31.4828V34.0264L200.388 34.1546V26.529H201.388L201.46 27.2264C201.665 26.946 201.902 26.7358 202.172 26.5956C202.446 26.4554 202.731 26.3854 203.029 26.3854ZM202.711 27.2725C202.454 27.2725 202.229 27.3495 202.034 27.5033C201.839 27.6572 201.673 27.8384 201.537 28.0469V30.5802C201.666 30.7751 201.82 30.9255 201.998 31.0315C202.179 31.1341 202.383 31.1854 202.608 31.1854C202.995 31.1854 203.289 31.0298 203.49 30.7187C203.692 30.4076 203.793 29.9119 203.793 29.2315C203.793 28.77 203.752 28.3956 203.67 28.1084C203.591 27.8178 203.472 27.6059 203.311 27.4725C203.154 27.3392 202.954 27.2725 202.711 27.2725Z" fill="white" fill-opacity="0.51"/>
<g filter="url(#filter0_d_31_25)">
<path d="M16.3483 13.7664C16.3483 13.0895 16.2806 12.5459 16.1452 12.1357C16.0139 11.7254 15.8354 11.4136 15.6098 11.2003C15.3883 10.9869 15.1401 10.8434 14.8652 10.7695C14.5944 10.6957 14.3175 10.6587 14.0344 10.6587H13.2529V16.9726H14.0406C14.336 16.9726 14.6211 16.9254 14.896 16.831C15.1708 16.7367 15.417 16.5726 15.6344 16.3387C15.856 16.1049 16.0303 15.7808 16.1575 15.3664C16.2847 14.948 16.3483 14.4146 16.3483 13.7664ZM17.8498 13.7664C17.8498 14.468 17.7739 15.0669 17.6221 15.5634C17.4744 16.0598 17.2693 16.4721 17.0067 16.8003C16.7483 17.1244 16.4488 17.3787 16.1083 17.5634C15.7719 17.7439 15.4149 17.871 15.0375 17.9449C14.6601 18.0187 14.2826 18.0557 13.9052 18.0557H11.8252V9.56336H13.7637C14.2806 9.56336 14.7811 9.61874 15.2652 9.72951C15.7534 9.84028 16.1903 10.0454 16.576 10.3449C16.9657 10.6444 17.2754 11.069 17.5052 11.6187C17.7349 12.1685 17.8498 12.8844 17.8498 13.7664ZM22.1465 11.3849C22.7824 11.3849 23.3177 11.5264 23.7526 11.8095C24.1875 12.0926 24.5157 12.4885 24.7372 12.9972C24.9629 13.5059 25.0757 14.1049 25.0757 14.7941C25.0757 15.4793 24.9608 16.0803 24.7311 16.5972C24.5054 17.11 24.1731 17.51 23.7342 17.7972C23.2993 18.0803 22.768 18.2218 22.1403 18.2218C21.5126 18.2218 20.9793 18.0844 20.5403 17.8095C20.1054 17.5305 19.7731 17.1346 19.5434 16.6218C19.3177 16.109 19.2049 15.5039 19.2049 14.8064C19.2049 14.1295 19.3177 13.5346 19.5434 13.0218C19.7731 12.509 20.1075 12.109 20.5465 11.8218C20.9854 11.5305 21.5188 11.3849 22.1465 11.3849ZM22.1465 12.4557C21.6501 12.4557 21.2767 12.6464 21.0265 13.028C20.7762 13.4054 20.6511 13.9982 20.6511 14.8064C20.6511 15.6105 20.7742 16.2034 21.0203 16.5849C21.2706 16.9664 21.6439 17.1572 22.1403 17.1572C22.6367 17.1572 23.008 16.9664 23.2542 16.5849C23.5044 16.2034 23.6295 15.6064 23.6295 14.7941C23.6295 13.9941 23.5065 13.4054 23.2603 13.028C23.0142 12.6464 22.6429 12.4557 22.1465 12.4557ZM32.1293 18.0557H30.4062L29.6739 13.4403L28.8862 18.0557H27.2L26.0985 11.5572H27.4277L28.1047 17.2003L29.0093 12.3818H30.3877L31.2308 17.2003L31.9077 11.5572H33.1877L32.1293 18.0557ZM34.549 18.0557V11.5572H35.7367L35.8413 12.4003C36.1121 12.068 36.4321 11.8157 36.8013 11.6434C37.1706 11.471 37.55 11.3849 37.9398 11.3849C38.547 11.3849 39.0003 11.5552 39.2998 11.8957C39.6034 12.2321 39.7552 12.7059 39.7552 13.3172V18.0557H38.3767V14.0003C38.3767 13.6228 38.3541 13.3193 38.309 13.0895C38.2639 12.8598 38.1736 12.6936 38.0382 12.591C37.907 12.4885 37.71 12.4372 37.4475 12.4372C37.2382 12.4372 37.0393 12.4823 36.8506 12.5726C36.6618 12.6628 36.4895 12.7818 36.3336 12.9295C36.1777 13.0731 36.0423 13.2269 35.9275 13.391V18.0557H34.549ZM44.9072 8.94797V16.2834C44.9072 16.5828 44.9975 16.7962 45.178 16.9234C45.3626 17.0464 45.6005 17.108 45.8918 17.108C46.0805 17.108 46.259 17.0875 46.4272 17.0464C46.5954 17.0054 46.7595 16.9541 46.9195 16.8926L47.2703 17.8526C47.0775 17.951 46.8395 18.0372 46.5564 18.111C46.2775 18.1849 45.9575 18.2218 45.5964 18.2218C44.9441 18.2218 44.4354 18.0393 44.0703 17.6741C43.7093 17.3049 43.5287 16.8003 43.5287 16.1603V9.96336H41.5657V8.94797H44.9072ZM52.1577 11.3849C52.7936 11.3849 53.329 11.5264 53.7639 11.8095C54.1987 12.0926 54.5269 12.4885 54.7485 12.9972C54.9741 13.5059 55.0869 14.1049 55.0869 14.7941C55.0869 15.4793 54.9721 16.0803 54.7423 16.5972C54.5167 17.11 54.1844 17.51 53.7454 17.7972C53.3105 18.0803 52.7793 18.2218 52.1516 18.2218C51.5239 18.2218 50.9905 18.0844 50.5516 17.8095C50.1167 17.5305 49.7844 17.1346 49.5546 16.6218C49.329 16.109 49.2162 15.5039 49.2162 14.8064C49.2162 14.1295 49.329 13.5346 49.5546 13.0218C49.7844 12.509 50.1187 12.109 50.5577 11.8218C50.9967 11.5305 51.53 11.3849 52.1577 11.3849ZM52.1577 12.4557C51.6613 12.4557 51.288 12.6464 51.0377 13.028C50.7875 13.4054 50.6623 13.9982 50.6623 14.8064C50.6623 15.6105 50.7854 16.2034 51.0316 16.5849C51.2818 16.9664 51.6551 17.1572 52.1516 17.1572C52.648 17.1572 53.0193 16.9664 53.2654 16.5849C53.5157 16.2034 53.6408 15.6064 53.6408 14.7941C53.6408 13.9941 53.5177 13.4054 53.2716 13.028C53.0254 12.6464 52.6541 12.4557 52.1577 12.4557ZM62.0236 16.4618C62.0236 16.7162 62.0626 16.9028 62.1405 17.0218C62.2185 17.1367 62.3436 17.2228 62.5159 17.2803L62.2082 18.2157C61.8882 18.1787 61.6133 18.0905 61.3836 17.951C61.1539 17.8116 60.9795 17.6003 60.8605 17.3172C60.6226 17.6167 60.321 17.8423 59.9559 17.9941C59.5908 18.1459 59.201 18.2218 58.7867 18.2218C58.1303 18.2218 57.6092 18.0372 57.2236 17.668C56.8421 17.2946 56.6513 16.8064 56.6513 16.2034C56.6513 15.5182 56.918 14.991 57.4513 14.6218C57.9846 14.2526 58.7477 14.068 59.7405 14.068H60.6698V13.6434C60.6698 13.2249 60.5426 12.9234 60.2882 12.7387C60.038 12.5541 59.6831 12.4618 59.2236 12.4618C59.0103 12.4618 58.7518 12.4905 58.4482 12.548C58.1446 12.6013 57.8267 12.6854 57.4944 12.8003L57.1559 11.828C57.5621 11.6762 57.96 11.5654 58.3498 11.4957C58.7395 11.4218 59.1005 11.3849 59.4328 11.3849C60.3026 11.3849 60.9508 11.5777 61.3775 11.9634C61.8082 12.349 62.0236 12.8823 62.0236 13.5634V16.4618ZM59.2051 17.2064C59.4841 17.2064 59.7569 17.1326 60.0236 16.9849C60.2903 16.8372 60.5057 16.63 60.6698 16.3634V14.9295H59.9067C59.2585 14.9295 58.7949 15.0382 58.5159 15.2557C58.2369 15.469 58.0975 15.7644 58.0975 16.1418C58.0975 16.4864 58.1898 16.751 58.3744 16.9357C58.5631 17.1162 58.84 17.2064 59.2051 17.2064ZM68.3756 8.79413L69.7541 8.94797V18.0557H68.5418L68.4433 17.2557C68.2218 17.5634 67.9572 17.8013 67.6495 17.9695C67.3418 18.1377 66.9972 18.2218 66.6156 18.2218C66.0577 18.2218 65.5982 18.0803 65.2372 17.7972C64.8762 17.51 64.6074 17.11 64.431 16.5972C64.2587 16.0803 64.1726 15.4834 64.1726 14.8064C64.1726 14.1459 64.2751 13.5593 64.4803 13.0464C64.6854 12.5295 64.9787 12.1234 65.3603 11.828C65.7418 11.5326 66.2013 11.3849 66.7387 11.3849C67.0792 11.3849 67.3849 11.4464 67.6556 11.5695C67.9264 11.6885 68.1664 11.8628 68.3756 12.0926V8.79413ZM67.1018 12.4434C66.6382 12.4434 66.2772 12.6362 66.0187 13.0218C65.7603 13.4034 65.631 13.9982 65.631 14.8064C65.631 15.3603 65.6844 15.8116 65.791 16.1603C65.8977 16.5049 66.0515 16.7593 66.2526 16.9234C66.4536 17.0834 66.6956 17.1634 66.9787 17.1634C67.2905 17.1634 67.5613 17.0731 67.791 16.8926C68.0208 16.7121 68.2156 16.4946 68.3756 16.2403V13.1634C68.2156 12.9336 68.029 12.7572 67.8156 12.6341C67.6023 12.5069 67.3644 12.4434 67.1018 12.4434ZM83.1167 18.0557L80.4151 10.831C80.4274 10.9582 80.4438 11.1387 80.4644 11.3726C80.489 11.6064 80.5115 11.8772 80.532 12.1849C80.5567 12.4926 80.5772 12.8187 80.5936 13.1634C80.61 13.508 80.6182 13.8526 80.6182 14.1972V18.0557H79.3505V9.56336H81.2028L83.9105 16.7941C83.89 16.6218 83.8633 16.3695 83.8305 16.0372C83.8018 15.7008 83.7731 15.311 83.7444 14.868C83.7197 14.4208 83.7074 13.9428 83.7074 13.4341V9.56336H84.9751V18.0557H83.1167ZM89.6718 11.3849C90.3077 11.3849 90.8431 11.5264 91.2779 11.8095C91.7128 12.0926 92.041 12.4885 92.2625 12.9972C92.4882 13.5059 92.601 14.1049 92.601 14.7941C92.601 15.4793 92.4861 16.0803 92.2564 16.5972C92.0307 17.11 91.6984 17.51 91.2595 17.7972C90.8246 18.0803 90.2933 18.2218 89.6656 18.2218C89.0379 18.2218 88.5046 18.0844 88.0656 17.8095C87.6307 17.5305 87.2984 17.1346 87.0687 16.6218C86.8431 16.109 86.7302 15.5039 86.7302 14.8064C86.7302 14.1295 86.8431 13.5346 87.0687 13.0218C87.2984 12.509 87.6328 12.109 88.0718 11.8218C88.5107 11.5305 89.0441 11.3849 89.6718 11.3849ZM89.6718 12.4557C89.1754 12.4557 88.802 12.6464 88.5518 13.028C88.3015 13.4054 88.1764 13.9982 88.1764 14.8064C88.1764 15.6105 88.2995 16.2034 88.5456 16.5849C88.7959 16.9664 89.1692 17.1572 89.6656 17.1572C90.162 17.1572 90.5333 16.9664 90.7795 16.5849C91.0297 16.2034 91.1549 15.6064 91.1549 14.7941C91.1549 13.9941 91.0318 13.4054 90.7856 13.028C90.5395 12.6464 90.1682 12.4557 89.6718 12.4557ZM99.6546 18.0557H97.9315L97.1992 13.4403L96.4115 18.0557H94.7254L93.6238 11.5572H94.9531L95.63 17.2003L96.5346 12.3818H97.9131L98.7561 17.2003L99.4331 11.5572H100.713L99.6546 18.0557Z" fill="#2D79C0"/>
</g>
<defs>
<filter id="filter0_d_31_25" x="7.8252" y="5.79419" width="96.8878" height="17.4277" filterUnits="userSpaceOnUse" color-interpolation-filters="sRGB">
<feFlood flood-opacity="0" result="BackgroundImageFix"/>
<feColorMatrix in="SourceAlpha" type="matrix" values="0 0 0 0 0 0 0 0 0 0 0 0 0 0 0 0 0 0 127 0" result="hardAlpha"/>
<feOffset dy="1"/>
<feGaussianBlur stdDeviation="2"/>
<feComposite in2="hardAlpha" operator="out"/>
<feColorMatrix type="matrix" values="0 0 0 0 0 0 0 0 0 0 0 0 0 0 0 0 0 0 0.32 0"/>
<feBlend mode="normal" in2="BackgroundImageFix" result="effect1_dropShadow_31_25"/>
<feBlend mode="normal" in="SourceGraphic" in2="effect1_dropShadow_31_25" result="shape"/>
</filter>
</defs>
</svg>
