<svg width="384" height="105" viewBox="0 0 384 105" fill="none" xmlns="http://www.w3.org/2000/svg">
<rect x="52.6066" y="14.2705" width="304.692" height="78.1803" rx="1.5" fill="#4F6F9F" fill-opacity="0.23" stroke="#59A3E8"/>
<rect x="67.7387" y="25.8196" width="203.216" height="22.377" rx="3" fill="#006ACD"/>
<path d="M80.9544 32.66C80.9544 32.1667 80.861 31.76 80.6744 31.44C80.4944 31.1133 80.2177 30.8733 79.8444 30.72C79.4777 30.56 79.0144 30.48 78.4544 30.48H77.3344V35.01H78.6244C79.111 35.01 79.5277 34.9267 79.8744 34.76C80.221 34.5933 80.4877 34.3367 80.6744 33.99C80.861 33.6433 80.9544 33.2 80.9544 32.66ZM84.3344 32.65C84.3344 33.7233 84.1044 34.61 83.6444 35.31C83.1844 36.01 82.541 36.5333 81.7144 36.88C80.8877 37.22 79.9277 37.39 78.8344 37.39H77.3344V42H74.0544V28.14H78.4144C80.2944 28.14 81.751 28.5133 82.7844 29.26C83.8177 30.0067 84.3344 31.1367 84.3344 32.65ZM86.2965 42V39.88H87.6965V33.48H86.2965V31.38H90.1065L90.6865 33.77C91.0665 32.8567 91.5499 32.1767 92.1365 31.73C92.7299 31.2833 93.4532 31.06 94.3065 31.06C94.6665 31.06 94.9865 31.09 95.2665 31.15C95.5465 31.2033 95.8099 31.28 96.0565 31.38L95.0965 33.99C94.9032 33.9367 94.7099 33.8967 94.5165 33.87C94.3232 33.8433 94.1099 33.83 93.8765 33.83C93.1832 33.83 92.5732 34.1133 92.0465 34.68C91.5265 35.2467 91.1299 35.9667 90.8565 36.84V39.88H92.9565V42H86.2965ZM93.4865 35.82V32.72L93.9565 31.38H96.0565L95.4665 35.82H93.4865ZM102.789 31.03C103.882 31.03 104.812 31.2633 105.579 31.73C106.345 32.1967 106.932 32.8533 107.339 33.7C107.745 34.54 107.949 35.5267 107.949 36.66C107.949 37.84 107.742 38.8567 107.329 39.71C106.922 40.5567 106.335 41.2067 105.569 41.66C104.802 42.1133 103.875 42.34 102.789 42.34C101.709 42.34 100.782 42.1167 100.009 41.67C99.2421 41.2233 98.6521 40.5767 98.2387 39.73C97.8321 38.8833 97.6287 37.8667 97.6287 36.68C97.6287 35.5533 97.8321 34.5667 98.2387 33.72C98.6521 32.8733 99.2421 32.2133 100.009 31.74C100.782 31.2667 101.709 31.03 102.789 31.03ZM102.789 33.36C102.142 33.36 101.662 33.6267 101.349 34.16C101.042 34.6867 100.889 35.5267 100.889 36.68C100.889 37.8533 101.042 38.7033 101.349 39.23C101.662 39.7567 102.142 40.02 102.789 40.02C103.435 40.02 103.912 39.7567 104.219 39.23C104.532 38.7033 104.689 37.8467 104.689 36.66C104.689 35.5133 104.532 34.6767 104.219 34.15C103.912 33.6233 103.435 33.36 102.789 33.36ZM119.611 29.68L120.351 32C119.978 32.1467 119.541 32.2533 119.041 32.32C118.541 32.3867 117.958 32.42 117.291 32.42C117.958 32.7067 118.464 33.0633 118.811 33.49C119.164 33.91 119.341 34.4633 119.341 35.15C119.341 35.8367 119.158 36.45 118.791 36.99C118.424 37.5233 117.904 37.9433 117.231 38.25C116.558 38.5567 115.761 38.71 114.841 38.71C114.614 38.71 114.401 38.7 114.201 38.68C114.001 38.66 113.804 38.63 113.611 38.59C113.498 38.65 113.411 38.7367 113.351 38.85C113.291 38.9633 113.261 39.08 113.261 39.2C113.261 39.3667 113.328 39.5167 113.461 39.65C113.601 39.7833 113.924 39.85 114.431 39.85H116.171C116.998 39.85 117.711 39.9833 118.311 40.25C118.918 40.5167 119.388 40.88 119.721 41.34C120.054 41.8 120.221 42.3267 120.221 42.92C120.221 44.0067 119.744 44.8633 118.791 45.49C117.838 46.1167 116.421 46.43 114.541 46.43C113.181 46.43 112.128 46.29 111.381 46.01C110.641 45.7367 110.124 45.3433 109.831 44.83C109.544 44.3233 109.401 43.72 109.401 43.02H112.201C112.201 43.3267 112.261 43.5767 112.381 43.77C112.508 43.97 112.744 44.1167 113.091 44.21C113.444 44.3033 113.954 44.35 114.621 44.35C115.294 44.35 115.808 44.2967 116.161 44.19C116.514 44.0833 116.754 43.9367 116.881 43.75C117.014 43.57 117.081 43.3667 117.081 43.14C117.081 42.8267 116.958 42.5733 116.711 42.38C116.464 42.1867 116.074 42.09 115.541 42.09H113.851C112.704 42.09 111.871 41.88 111.351 41.46C110.831 41.0333 110.571 40.5367 110.571 39.97C110.571 39.5767 110.674 39.2033 110.881 38.85C111.094 38.4967 111.391 38.2 111.771 37.96C111.091 37.6 110.604 37.1767 110.311 36.69C110.018 36.1967 109.871 35.6067 109.871 34.92C109.871 34.12 110.074 33.4333 110.481 32.86C110.888 32.28 111.448 31.8333 112.161 31.52C112.881 31.2067 113.701 31.05 114.621 31.05C115.414 31.0633 116.104 31.01 116.691 30.89C117.278 30.7633 117.804 30.5933 118.271 30.38C118.738 30.16 119.184 29.9267 119.611 29.68ZM114.701 33.1C114.201 33.1 113.804 33.26 113.511 33.58C113.218 33.8933 113.071 34.3267 113.071 34.88C113.071 35.4667 113.221 35.9167 113.521 36.23C113.821 36.5433 114.214 36.7 114.701 36.7C115.228 36.7 115.628 36.5433 115.901 36.23C116.181 35.9167 116.321 35.4533 116.321 34.84C116.321 34.2467 116.184 33.81 115.911 33.53C115.638 33.2433 115.234 33.1 114.701 33.1ZM122.273 42V39.88H123.673V33.48H122.273V31.38H126.083L126.663 33.77C127.043 32.8567 127.526 32.1767 128.113 31.73C128.706 31.2833 129.43 31.06 130.283 31.06C130.643 31.06 130.963 31.09 131.243 31.15C131.523 31.2033 131.786 31.28 132.033 31.38L131.073 33.99C130.88 33.9367 130.686 33.8967 130.493 33.87C130.3 33.8433 130.086 33.83 129.853 33.83C129.16 33.83 128.55 34.1133 128.023 34.68C127.503 35.2467 127.106 35.9667 126.833 36.84V39.88H128.933V42H122.273ZM129.463 35.82V32.72L129.933 31.38H132.033L131.443 35.82H129.463ZM143.105 38.94C143.105 39.34 143.159 39.63 143.265 39.81C143.379 39.99 143.559 40.1267 143.805 40.22L143.155 42.3C142.529 42.24 141.999 42.1033 141.565 41.89C141.139 41.67 140.802 41.34 140.555 40.9C140.149 41.3867 139.629 41.75 138.995 41.99C138.362 42.2233 137.715 42.34 137.055 42.34C135.962 42.34 135.089 42.03 134.435 41.41C133.789 40.7833 133.465 39.98 133.465 39C133.465 37.8467 133.915 36.9567 134.815 36.33C135.722 35.7033 136.995 35.39 138.635 35.39H140.065V34.99C140.065 34.4367 139.885 34.0267 139.525 33.76C139.172 33.4933 138.652 33.36 137.965 33.36C137.625 33.36 137.189 33.41 136.655 33.51C136.122 33.6033 135.589 33.74 135.055 33.92L134.325 31.82C135.012 31.56 135.725 31.3633 136.465 31.23C137.212 31.0967 137.879 31.03 138.465 31.03C140.045 31.03 141.212 31.3533 141.965 32C142.725 32.64 143.105 33.5667 143.105 34.78V38.94ZM138.145 40.08C138.485 40.08 138.842 39.98 139.215 39.78C139.589 39.5733 139.872 39.2833 140.065 38.91V37.19H139.285C138.405 37.19 137.759 37.3267 137.345 37.6C136.932 37.8667 136.725 38.26 136.725 38.78C136.725 39.1867 136.849 39.5067 137.095 39.74C137.349 39.9667 137.699 40.08 138.145 40.08ZM154.007 31.03C154.514 31.03 154.931 31.1367 155.257 31.35C155.584 31.5633 155.827 31.9 155.987 32.36C156.147 32.8133 156.227 33.4067 156.227 34.14V42H153.517V34.5C153.517 34.1267 153.481 33.8633 153.407 33.71C153.341 33.5567 153.201 33.48 152.987 33.48C152.821 33.48 152.647 33.53 152.467 33.63C152.294 33.7233 152.101 33.9033 151.887 34.17V42H149.667V34.5C149.667 34.1267 149.631 33.8633 149.557 33.71C149.491 33.5567 149.351 33.48 149.137 33.48C148.971 33.48 148.797 33.53 148.617 33.63C148.444 33.7233 148.251 33.9033 148.037 34.17V42H145.287V31.38H147.607L147.817 32.41C148.151 31.9567 148.487 31.6133 148.827 31.38C149.167 31.1467 149.571 31.03 150.037 31.03C150.437 31.03 150.777 31.1333 151.057 31.34C151.344 31.54 151.547 31.8567 151.667 32.29C151.987 31.9167 152.341 31.6133 152.727 31.38C153.114 31.1467 153.541 31.03 154.007 31.03ZM166 31.03C166.506 31.03 166.923 31.1367 167.25 31.35C167.576 31.5633 167.82 31.9 167.98 32.36C168.14 32.8133 168.22 33.4067 168.22 34.14V42H165.51V34.5C165.51 34.1267 165.473 33.8633 165.4 33.71C165.333 33.5567 165.193 33.48 164.98 33.48C164.813 33.48 164.64 33.53 164.46 33.63C164.286 33.7233 164.093 33.9033 163.88 34.17V42H161.66V34.5C161.66 34.1267 161.623 33.8633 161.55 33.71C161.483 33.5567 161.343 33.48 161.13 33.48C160.963 33.48 160.79 33.53 160.61 33.63C160.436 33.7233 160.243 33.9033 160.03 34.17V42H157.28V31.38H159.6L159.81 32.41C160.143 31.9567 160.48 31.6133 160.82 31.38C161.16 31.1467 161.563 31.03 162.03 31.03C162.43 31.03 162.77 31.1333 163.05 31.34C163.336 31.54 163.54 31.8567 163.66 32.29C163.98 31.9167 164.333 31.6133 164.72 31.38C165.106 31.1467 165.533 31.03 166 31.03ZM176.632 31.38V39.84H179.332V42H170.462V39.84H173.472V33.54H170.562V31.38H176.632ZM174.722 25.82C175.269 25.82 175.715 25.99 176.062 26.33C176.409 26.67 176.582 27.0933 176.582 27.6C176.582 28.1067 176.409 28.5333 176.062 28.88C175.715 29.22 175.269 29.39 174.722 29.39C174.169 29.39 173.715 29.22 173.362 28.88C173.015 28.5333 172.842 28.1067 172.842 27.6C172.842 27.0933 173.015 26.67 173.362 26.33C173.715 25.99 174.169 25.82 174.722 25.82ZM182.134 42V31.38H184.894L185.114 32.61C185.587 32.0767 186.087 31.68 186.614 31.42C187.141 31.16 187.741 31.03 188.414 31.03C189.321 31.03 190.034 31.3067 190.554 31.86C191.074 32.4133 191.334 33.1933 191.334 34.2V42H188.174V35.11C188.174 34.6767 188.144 34.3333 188.084 34.08C188.024 33.82 187.917 33.6367 187.764 33.53C187.617 33.4167 187.414 33.36 187.154 33.36C186.934 33.36 186.717 33.41 186.504 33.51C186.297 33.6033 186.094 33.74 185.894 33.92C185.694 34.1 185.494 34.3167 185.294 34.57V42H182.134ZM203.556 29.68L204.296 32C203.923 32.1467 203.486 32.2533 202.986 32.32C202.486 32.3867 201.903 32.42 201.236 32.42C201.903 32.7067 202.41 33.0633 202.756 33.49C203.11 33.91 203.286 34.4633 203.286 35.15C203.286 35.8367 203.103 36.45 202.736 36.99C202.37 37.5233 201.85 37.9433 201.176 38.25C200.503 38.5567 199.706 38.71 198.786 38.71C198.56 38.71 198.346 38.7 198.146 38.68C197.946 38.66 197.75 38.63 197.556 38.59C197.443 38.65 197.356 38.7367 197.296 38.85C197.236 38.9633 197.206 39.08 197.206 39.2C197.206 39.3667 197.273 39.5167 197.406 39.65C197.546 39.7833 197.87 39.85 198.376 39.85H200.116C200.943 39.85 201.656 39.9833 202.256 40.25C202.863 40.5167 203.333 40.88 203.666 41.34C204 41.8 204.166 42.3267 204.166 42.92C204.166 44.0067 203.69 44.8633 202.736 45.49C201.783 46.1167 200.366 46.43 198.486 46.43C197.126 46.43 196.073 46.29 195.326 46.01C194.586 45.7367 194.07 45.3433 193.776 44.83C193.49 44.3233 193.346 43.72 193.346 43.02H196.146C196.146 43.3267 196.206 43.5767 196.326 43.77C196.453 43.97 196.69 44.1167 197.036 44.21C197.39 44.3033 197.9 44.35 198.566 44.35C199.24 44.35 199.753 44.2967 200.106 44.19C200.46 44.0833 200.7 43.9367 200.826 43.75C200.96 43.57 201.026 43.3667 201.026 43.14C201.026 42.8267 200.903 42.5733 200.656 42.38C200.41 42.1867 200.02 42.09 199.486 42.09H197.796C196.65 42.09 195.816 41.88 195.296 41.46C194.776 41.0333 194.516 40.5367 194.516 39.97C194.516 39.5767 194.62 39.2033 194.826 38.85C195.04 38.4967 195.336 38.2 195.716 37.96C195.036 37.6 194.55 37.1767 194.256 36.69C193.963 36.1967 193.816 35.6067 193.816 34.92C193.816 34.12 194.02 33.4333 194.426 32.86C194.833 32.28 195.393 31.8333 196.106 31.52C196.826 31.2067 197.646 31.05 198.566 31.05C199.36 31.0633 200.05 31.01 200.636 30.89C201.223 30.7633 201.75 30.5933 202.216 30.38C202.683 30.16 203.13 29.9267 203.556 29.68ZM198.646 33.1C198.146 33.1 197.75 33.26 197.456 33.58C197.163 33.8933 197.016 34.3267 197.016 34.88C197.016 35.4667 197.166 35.9167 197.466 36.23C197.766 36.5433 198.16 36.7 198.646 36.7C199.173 36.7 199.573 36.5433 199.846 36.23C200.126 35.9167 200.266 35.4533 200.266 34.84C200.266 34.2467 200.13 33.81 199.856 33.53C199.583 33.2433 199.18 33.1 198.646 33.1ZM218.571 42V28.14H221.851V39.41H227.861L227.521 42H218.571ZM236.593 31.38V39.84H239.293V42H230.423V39.84H233.433V33.54H230.523V31.38H236.593ZM234.683 25.82C235.229 25.82 235.676 25.99 236.023 26.33C236.369 26.67 236.543 27.0933 236.543 27.6C236.543 28.1067 236.369 28.5333 236.023 28.88C235.676 29.22 235.229 29.39 234.683 29.39C234.129 29.39 233.676 29.22 233.323 28.88C232.976 28.5333 232.803 28.1067 232.803 27.6C232.803 27.0933 232.976 26.67 233.323 26.33C233.676 25.99 234.129 25.82 234.683 25.82ZM251.525 29.68L252.265 32C251.892 32.1467 251.455 32.2533 250.955 32.32C250.455 32.3867 249.872 32.42 249.205 32.42C249.872 32.7067 250.378 33.0633 250.725 33.49C251.078 33.91 251.255 34.4633 251.255 35.15C251.255 35.8367 251.072 36.45 250.705 36.99C250.338 37.5233 249.818 37.9433 249.145 38.25C248.472 38.5567 247.675 38.71 246.755 38.71C246.528 38.71 246.315 38.7 246.115 38.68C245.915 38.66 245.718 38.63 245.525 38.59C245.412 38.65 245.325 38.7367 245.265 38.85C245.205 38.9633 245.175 39.08 245.175 39.2C245.175 39.3667 245.242 39.5167 245.375 39.65C245.515 39.7833 245.838 39.85 246.345 39.85H248.085C248.912 39.85 249.625 39.9833 250.225 40.25C250.832 40.5167 251.302 40.88 251.635 41.34C251.968 41.8 252.135 42.3267 252.135 42.92C252.135 44.0067 251.658 44.8633 250.705 45.49C249.752 46.1167 248.335 46.43 246.455 46.43C245.095 46.43 244.042 46.29 243.295 46.01C242.555 45.7367 242.038 45.3433 241.745 44.83C241.458 44.3233 241.315 43.72 241.315 43.02H244.115C244.115 43.3267 244.175 43.5767 244.295 43.77C244.422 43.97 244.658 44.1167 245.005 44.21C245.358 44.3033 245.868 44.35 246.535 44.35C247.208 44.35 247.722 44.2967 248.075 44.19C248.428 44.0833 248.668 43.9367 248.795 43.75C248.928 43.57 248.995 43.3667 248.995 43.14C248.995 42.8267 248.872 42.5733 248.625 42.38C248.378 42.1867 247.988 42.09 247.455 42.09H245.765C244.618 42.09 243.785 41.88 243.265 41.46C242.745 41.0333 242.485 40.5367 242.485 39.97C242.485 39.5767 242.588 39.2033 242.795 38.85C243.008 38.4967 243.305 38.2 243.685 37.96C243.005 37.6 242.518 37.1767 242.225 36.69C241.932 36.1967 241.785 35.6067 241.785 34.92C241.785 34.12 241.988 33.4333 242.395 32.86C242.802 32.28 243.362 31.8333 244.075 31.52C244.795 31.2067 245.615 31.05 246.535 31.05C247.328 31.0633 248.018 31.01 248.605 30.89C249.192 30.7633 249.718 30.5933 250.185 30.38C250.652 30.16 251.098 29.9267 251.525 29.68ZM246.615 33.1C246.115 33.1 245.718 33.26 245.425 33.58C245.132 33.8933 244.985 34.3267 244.985 34.88C244.985 35.4667 245.135 35.9167 245.435 36.23C245.735 36.5433 246.128 36.7 246.615 36.7C247.142 36.7 247.542 36.5433 247.815 36.23C248.095 35.9167 248.235 35.4533 248.235 34.84C248.235 34.2467 248.098 33.81 247.825 33.53C247.552 33.2433 247.148 33.1 246.615 33.1ZM263.027 38.94C263.027 39.34 263.08 39.63 263.187 39.81C263.3 39.99 263.48 40.1267 263.727 40.22L263.077 42.3C262.45 42.24 261.92 42.1033 261.487 41.89C261.06 41.67 260.724 41.34 260.477 40.9C260.07 41.3867 259.55 41.75 258.917 41.99C258.284 42.2233 257.637 42.34 256.977 42.34C255.884 42.34 255.01 42.03 254.357 41.41C253.71 40.7833 253.387 39.98 253.387 39C253.387 37.8467 253.837 36.9567 254.737 36.33C255.644 35.7033 256.917 35.39 258.557 35.39H259.987V34.99C259.987 34.4367 259.807 34.0267 259.447 33.76C259.094 33.4933 258.574 33.36 257.887 33.36C257.547 33.36 257.11 33.41 256.577 33.51C256.044 33.6033 255.51 33.74 254.977 33.92L254.247 31.82C254.934 31.56 255.647 31.3633 256.387 31.23C257.134 31.0967 257.8 31.03 258.387 31.03C259.967 31.03 261.134 31.3533 261.887 32C262.647 32.64 263.027 33.5667 263.027 34.78V38.94ZM258.067 40.08C258.407 40.08 258.764 39.98 259.137 39.78C259.51 39.5733 259.794 39.2833 259.987 38.91V37.19H259.207C258.327 37.19 257.68 37.3267 257.267 37.6C256.854 37.8667 256.647 38.26 256.647 38.78C256.647 39.1867 256.77 39.5067 257.017 39.74C257.27 39.9667 257.62 40.08 258.067 40.08Z" fill="white"/>
<path d="M282.122 30.48V34.15H286.982V36.5H282.122V42H278.832V28.14H287.942L287.602 30.48H282.122ZM294.664 31.03C295.757 31.03 296.687 31.2633 297.454 31.73C298.22 32.1967 298.807 32.8533 299.214 33.7C299.62 34.54 299.824 35.5267 299.824 36.66C299.824 37.84 299.617 38.8567 299.204 39.71C298.797 40.5567 298.21 41.2067 297.444 41.66C296.677 42.1133 295.75 42.34 294.664 42.34C293.584 42.34 292.657 42.1167 291.884 41.67C291.117 41.2233 290.527 40.5767 290.114 39.73C289.707 38.8833 289.504 37.8667 289.504 36.68C289.504 35.5533 289.707 34.5667 290.114 33.72C290.527 32.8733 291.117 32.2133 291.884 31.74C292.657 31.2667 293.584 31.03 294.664 31.03ZM294.664 33.36C294.017 33.36 293.537 33.6267 293.224 34.16C292.917 34.6867 292.764 35.5267 292.764 36.68C292.764 37.8533 292.917 38.7033 293.224 39.23C293.537 39.7567 294.017 40.02 294.664 40.02C295.31 40.02 295.787 39.7567 296.094 39.23C296.407 38.7033 296.564 37.8467 296.564 36.66C296.564 35.5133 296.407 34.6767 296.094 34.15C295.787 33.6233 295.31 33.36 294.664 33.36ZM302.056 42V31.38H304.816L305.036 32.61C305.509 32.0767 306.009 31.68 306.536 31.42C307.063 31.16 307.663 31.03 308.336 31.03C309.243 31.03 309.956 31.3067 310.476 31.86C310.996 32.4133 311.256 33.1933 311.256 34.2V42H308.096V35.11C308.096 34.6767 308.066 34.3333 308.006 34.08C307.946 33.82 307.839 33.6367 307.686 33.53C307.539 33.4167 307.336 33.36 307.076 33.36C306.856 33.36 306.639 33.41 306.426 33.51C306.219 33.6033 306.016 33.74 305.816 33.92C305.616 34.1 305.416 34.3167 305.216 34.57V42H302.056ZM323.608 41.38C323.195 41.6467 322.695 41.8733 322.108 42.06C321.521 42.2467 320.861 42.34 320.128 42.34C318.741 42.34 317.711 41.9867 317.038 41.28C316.365 40.5667 316.028 39.6 316.028 38.38V33.56H313.798V31.38H316.028V29.08L319.188 28.7V31.38H322.608L322.298 33.56H319.188V38.38C319.188 38.9067 319.308 39.2833 319.548 39.51C319.788 39.7367 320.171 39.85 320.698 39.85C321.071 39.85 321.411 39.8067 321.718 39.72C322.031 39.6267 322.311 39.51 322.558 39.37L323.608 41.38Z" fill="#2897FF"/>
<path d="M70.3783 68.86V66.4H80.4083V68.86H70.3783ZM70.3783 73.08V70.62H80.4083V73.08H70.3783ZM79.8004 68.86V66.4H86.4504V68.86H79.8004ZM79.8004 73.08V70.62H86.4504V73.08H79.8004ZM83.9804 63.02L90.0304 69.74L83.9804 76.46L81.9104 74.68L82.6404 73.89C82.7604 73.7433 82.8904 73.6033 83.0304 73.47C83.1771 73.33 83.3571 73.1967 83.5704 73.07L85.6404 70.61L86.4504 69.74L85.6404 68.87L83.5704 66.41C83.3571 66.2767 83.1771 66.1433 83.0304 66.01C82.8904 65.8767 82.7604 65.7367 82.6404 65.59L81.9104 64.8L83.9804 63.02Z" fill="#0DCA55"/>
<path d="M109.615 71.36L108.605 73.65L97.5348 68.74L98.5648 66.5L109.615 71.36ZM108.965 76.56L107.955 78.86L96.8748 73.92L97.9048 71.69L108.965 76.56ZM109.615 63.85L98.5648 68.71L97.5348 68.74V66.47L108.605 61.55L109.615 63.85Z" fill="#0077FF"/>
<path d="M125.197 67.07L124.697 71.03H127.577V73.11H124.417L124.037 76H121.427L121.807 73.11H119.907L119.527 76H116.917L117.277 73.11H116.087V71.03H117.557L118.077 67.07H116.827V64.98H118.357L118.717 62.14H121.347L120.957 64.98H122.867L123.247 62.14H125.857L125.477 64.98H127.577V67.07H125.197ZM120.167 71.03H122.067L122.587 67.07H120.687L120.167 71.03ZM136.989 67.07L136.489 71.03H137.739V73.11H136.209L135.829 76H133.219L133.599 73.11H131.699L131.319 76H128.709L129.069 73.11H126.969V71.03H129.349L129.869 67.07H126.969V64.98H130.149L130.509 62.14H133.139L132.749 64.98H134.659L135.039 62.14H137.649L137.269 64.98H138.479V67.07H136.989ZM131.959 71.03H133.859L134.379 67.07H132.479L131.959 71.03Z" fill="#C9601E"/>
<path d="M141.131 71.03V68.45H151.161V71.03H141.131ZM150.554 71.03V68.45H162.954V71.03H150.554ZM174.338 71.03H162.138V68.45H174.338V71.03ZM178.318 63.02L184.368 69.74L178.318 76.46L176.248 74.68L180.788 69.74L176.248 64.8L178.318 63.02ZM170.478 63.02L176.528 69.74L170.478 76.46L168.408 74.68L169.808 73.16C170.215 72.72 170.611 72.3233 170.998 71.97C171.378 71.61 171.781 71.2967 172.208 71.03V68.45C171.781 68.1833 171.378 67.8733 170.998 67.52C170.611 67.16 170.215 66.76 169.808 66.32L168.408 64.8L170.478 63.02Z" fill="#3DBF2C"/>
<path d="M198.33 68.86H191.68V66.4H198.33V68.86ZM198.33 73.08H191.68V70.62H198.33V73.08ZM194.15 63.02L196.22 64.8L195.49 65.59C195.37 65.7367 195.237 65.8767 195.09 66.01C194.95 66.1433 194.773 66.2767 194.56 66.41L192.49 68.87L191.68 69.74L192.49 70.61L194.56 73.07C194.773 73.1967 194.95 73.33 195.09 73.47C195.237 73.6033 195.37 73.7433 195.49 73.89L196.22 74.68L194.15 76.46L188.1 69.74L194.15 63.02ZM197.722 68.86V66.4H210.122V68.86H197.722ZM197.722 73.08V70.62H210.122V73.08H197.722ZM209.515 68.86V66.4H219.545V68.86H209.515ZM209.515 73.08V70.62H219.545V73.08H209.515Z" fill="#C33C30"/>
<path d="M229.109 61.78L240.279 68.59V70.85L229.109 77.72H226.649V61.78H229.109ZM229.109 74.69L237.549 69.72L229.109 64.9V74.69Z" fill="#4A73F9"/>
<path d="M253.193 70.97V75.08H250.553V70.97H246.543V68.53H250.553V64.42H253.193V68.53H260.553V64.42H263.193V68.53H267.223V70.97H263.193V75.08H260.553V70.97H253.193Z" fill="#CD2F49"/>
<path d="M276.43 69.55C276.656 69.55 276.853 69.4833 277.02 69.35C277.186 69.2167 277.36 69.05 277.54 68.85C277.713 68.65 277.92 68.45 278.16 68.25C278.4 68.05 278.7 67.8833 279.06 67.75C279.42 67.6167 279.876 67.55 280.43 67.55C280.976 67.55 281.433 67.6167 281.8 67.75C282.16 67.8833 282.46 68.05 282.7 68.25C282.94 68.45 283.15 68.65 283.33 68.85C283.503 69.05 283.673 69.2167 283.84 69.35C284.006 69.4833 284.203 69.55 284.43 69.55C284.67 69.55 284.87 69.4833 285.03 69.35C285.19 69.2167 285.35 69.05 285.51 68.85C285.663 68.65 285.853 68.45 286.08 68.25C286.306 68.05 286.606 67.8833 286.98 67.75C287.353 67.6167 287.836 67.55 288.43 67.55C288.976 67.55 289.433 67.6167 289.8 67.75C290.166 67.8833 290.47 68.05 290.71 68.25C290.95 68.45 291.16 68.65 291.34 68.85C291.513 69.05 291.683 69.2167 291.85 69.35C292.016 69.4833 292.21 69.55 292.43 69.55C292.656 69.55 292.853 69.4833 293.02 69.35C293.186 69.2167 293.356 69.05 293.53 68.85C293.71 68.65 293.92 68.45 294.16 68.25C294.4 68.05 294.7 67.8833 295.06 67.75C295.42 67.6167 295.876 67.55 296.43 67.55C296.976 67.55 297.43 67.6167 297.79 67.75C298.156 67.8833 298.46 68.05 298.7 68.25C298.94 68.45 299.146 68.65 299.32 68.85C299.5 69.05 299.673 69.2167 299.84 69.35C300.006 69.4833 300.203 69.55 300.43 69.55C300.736 69.55 301.036 69.3933 301.33 69.08C301.623 68.7667 301.853 68.41 302.02 68.01L304.3 69.06C304.1 69.6467 303.783 70.1633 303.35 70.61C302.923 71.05 302.45 71.3933 301.93 71.64C301.41 71.8867 300.91 72.01 300.43 72.01C299.876 72.01 299.42 71.9433 299.06 71.81C298.7 71.6767 298.4 71.51 298.16 71.31C297.92 71.11 297.71 70.91 297.53 70.71C297.356 70.51 297.186 70.3433 297.02 70.21C296.853 70.0767 296.656 70.01 296.43 70.01C296.21 70.01 296.013 70.0833 295.84 70.23C295.673 70.37 295.5 70.5467 295.32 70.76C295.146 70.9667 294.94 71.1767 294.7 71.39C294.46 71.5967 294.156 71.7733 293.79 71.92C293.43 72.06 292.976 72.13 292.43 72.13C291.876 72.13 291.423 72.06 291.07 71.92C290.71 71.7733 290.413 71.5967 290.18 71.39C289.946 71.1767 289.743 70.9667 289.57 70.76C289.396 70.5467 289.223 70.37 289.05 70.23C288.876 70.0833 288.67 70.01 288.43 70.01C288.19 70.01 287.99 70.0767 287.83 70.21C287.67 70.3433 287.513 70.51 287.36 70.71C287.2 70.91 287.006 71.11 286.78 71.31C286.553 71.51 286.253 71.6767 285.88 71.81C285.506 71.9433 285.023 72.01 284.43 72.01C283.876 72.01 283.42 71.9433 283.06 71.81C282.7 71.6767 282.4 71.51 282.16 71.31C281.92 71.11 281.713 70.91 281.54 70.71C281.36 70.51 281.186 70.3433 281.02 70.21C280.853 70.0767 280.656 70.01 280.43 70.01C280.21 70.01 280.016 70.0833 279.85 70.23C279.676 70.37 279.503 70.5467 279.33 70.76C279.15 70.9667 278.94 71.1767 278.7 71.39C278.46 71.5967 278.16 71.7733 277.8 71.92C277.433 72.06 276.976 72.13 276.43 72.13C275.836 72.13 275.356 72.0733 274.99 71.96C274.623 71.84 274.326 71.6967 274.1 71.53C273.873 71.3567 273.67 71.19 273.49 71.03C273.31 70.8633 273.113 70.73 272.9 70.63C272.68 70.53 272.393 70.4967 272.04 70.53V67.89C272.706 67.83 273.25 67.85 273.67 67.95C274.09 68.0433 274.43 68.1767 274.69 68.35C274.943 68.5233 275.156 68.7033 275.33 68.89C275.496 69.07 275.663 69.2267 275.83 69.36C275.99 69.4867 276.19 69.55 276.43 69.55ZM275.28 63.02L277.35 64.8L275.95 66.32C275.543 66.76 275.15 67.16 274.77 67.52C274.383 67.8733 273.976 68.1833 273.55 68.45V71.03C273.976 71.2967 274.383 71.61 274.77 71.97C275.15 72.3233 275.543 72.72 275.95 73.16L277.35 74.68L275.28 76.46L269.23 69.74L275.28 63.02Z" fill="#FAB624"/>
<path d="M312.094 78.64L309.794 77.49L319.624 61.02L321.894 62.14L312.094 78.64ZM326.384 66.44V68.91H305.304V66.44H326.384ZM326.384 70.65V73.1H305.304V70.65H326.384Z" fill="#E859D5"/>
</svg>
