<svg width="223" height="61" viewBox="0 0 223 61" fill="none" xmlns="http://www.w3.org/2000/svg">
<rect x="30.7715" y="8.5" width="176.593" height="45" rx="1.5" fill="#4F6F9F" fill-opacity="0.23" stroke="#59A3E8"/>
<rect x="39.353" y="15" width="118.059" height="13" rx="3" fill="#006ACD"/>
<path d="M48.011 19.6295C48.011 19.3458 47.9573 19.112 47.85 18.928C47.7465 18.7402 47.5874 18.6022 47.3727 18.514C47.1619 18.422 46.8955 18.376 46.5735 18.376H45.9295V20.9807H46.6712C46.9511 20.9807 47.1906 20.9328 47.39 20.837C47.5893 20.7412 47.7426 20.5936 47.85 20.3942C47.9573 20.1949 48.011 19.94 48.011 19.6295ZM49.9545 19.6237C49.9545 20.2409 49.8222 20.7507 49.5577 21.1532C49.2932 21.5557 48.9233 21.8567 48.448 22.056C47.9726 22.2515 47.4206 22.3492 46.792 22.3492H45.9295V25H44.0435V17.0305H46.5505C47.6315 17.0305 48.4691 17.2452 49.0632 17.6745C49.6574 18.1038 49.9545 18.7536 49.9545 19.6237ZM51.0827 25V23.781H51.8877V20.101H51.0827V18.8935H53.2735L53.607 20.2677C53.8255 19.7426 54.1034 19.3516 54.4407 19.0947C54.7819 18.8379 55.1978 18.7095 55.6885 18.7095C55.8955 18.7095 56.0795 18.7267 56.2405 18.7612C56.4015 18.7919 56.5529 18.836 56.6947 18.8935L56.1427 20.3942C56.0316 20.3636 55.9204 20.3406 55.8092 20.3252C55.6981 20.3099 55.5754 20.3022 55.4412 20.3022C55.0426 20.3022 54.6918 20.4652 54.389 20.791C54.09 21.1168 53.8619 21.5308 53.7047 22.033V23.781H54.9122V25H51.0827ZM55.217 21.4465V19.664L55.4872 18.8935H56.6947L56.3555 21.4465H55.217ZM60.5657 18.6922C61.1944 18.6922 61.7292 18.8264 62.17 19.0947C62.6108 19.3631 62.9482 19.7407 63.182 20.2275C63.4158 20.7105 63.5327 21.2778 63.5327 21.9295C63.5327 22.608 63.4139 23.1926 63.1762 23.6832C62.9424 24.1701 62.6051 24.5438 62.1642 24.8045C61.7234 25.0652 61.1906 25.1955 60.5657 25.1955C59.9447 25.1955 59.4119 25.0671 58.9672 24.8103C58.5264 24.5534 58.1872 24.1816 57.9495 23.6947C57.7157 23.2079 57.5987 22.6233 57.5987 21.941C57.5987 21.2932 57.7157 20.7258 57.9495 20.239C58.1872 19.7522 58.5264 19.3727 58.9672 19.1005C59.4119 18.8283 59.9447 18.6922 60.5657 18.6922ZM60.5657 20.032C60.1939 20.032 59.9179 20.1853 59.7377 20.492C59.5614 20.7948 59.4732 21.2778 59.4732 21.941C59.4732 22.6157 59.5614 23.1044 59.7377 23.4072C59.9179 23.7101 60.1939 23.8615 60.5657 23.8615C60.9376 23.8615 61.2117 23.7101 61.388 23.4072C61.5682 23.1044 61.6582 22.6118 61.6582 21.9295C61.6582 21.2702 61.5682 20.7891 61.388 20.4862C61.2117 20.1834 60.9376 20.032 60.5657 20.032ZM70.2385 17.916L70.664 19.25C70.4493 19.3343 70.1983 19.3957 69.9108 19.434C69.6233 19.4723 69.2878 19.4915 68.9045 19.4915C69.2878 19.6563 69.5792 19.8614 69.7785 20.1067C69.9817 20.3482 70.0833 20.6664 70.0833 21.0612C70.0833 21.4561 69.9778 21.8087 69.767 22.1192C69.5562 22.4259 69.2572 22.6674 68.87 22.8437C68.4828 23.0201 68.0248 23.1082 67.4958 23.1082C67.3654 23.1082 67.2428 23.1025 67.1278 23.091C67.0128 23.0795 66.8997 23.0622 66.7885 23.0392C66.7233 23.0737 66.6735 23.1236 66.639 23.1887C66.6045 23.2539 66.5873 23.321 66.5873 23.39C66.5873 23.4858 66.6256 23.5721 66.7023 23.6487C66.7828 23.7254 66.9687 23.7637 67.26 23.7637H68.2605C68.7358 23.7637 69.146 23.8404 69.491 23.9937C69.8398 24.1471 70.1101 24.356 70.3018 24.6205C70.4934 24.885 70.5893 25.1878 70.5893 25.529C70.5893 26.1538 70.3152 26.6464 69.767 27.0068C69.2188 27.3671 68.4043 27.5473 67.3233 27.5473C66.5413 27.5473 65.9356 27.4668 65.5063 27.3058C65.0808 27.1486 64.7837 26.9224 64.615 26.6273C64.4502 26.3359 64.3678 25.989 64.3678 25.5865H65.9778C65.9778 25.7628 66.0123 25.9066 66.0813 26.0178C66.1541 26.1328 66.2902 26.2171 66.4895 26.2708C66.6927 26.3244 66.9859 26.3513 67.3693 26.3513C67.7564 26.3513 68.0516 26.3206 68.2548 26.2593C68.4579 26.1979 68.5959 26.1136 68.6688 26.0063C68.7454 25.9028 68.7838 25.7858 68.7838 25.6555C68.7838 25.4753 68.7128 25.3297 68.571 25.2185C68.4292 25.1073 68.2049 25.0518 67.8983 25.0518H66.9265C66.2672 25.0518 65.788 24.931 65.489 24.6895C65.19 24.4442 65.0405 24.1586 65.0405 23.8327C65.0405 23.6066 65.0999 23.3919 65.2188 23.1887C65.3414 22.9856 65.512 22.815 65.7305 22.677C65.3395 22.47 65.0597 22.2266 64.891 21.9467C64.7223 21.6631 64.638 21.3238 64.638 20.929C64.638 20.469 64.7549 20.0742 64.9888 19.7445C65.2226 19.411 65.5446 19.1542 65.9548 18.974C66.3688 18.7938 66.8403 18.7037 67.3693 18.7037C67.8254 18.7114 68.2222 18.6807 68.5595 18.6117C68.8968 18.5389 69.1997 18.4412 69.468 18.3185C69.7363 18.192 69.9932 18.0578 70.2385 17.916ZM67.4153 19.8825C67.1278 19.8825 66.8997 19.9745 66.731 20.1585C66.5623 20.3387 66.478 20.5878 66.478 20.906C66.478 21.2433 66.5643 21.5021 66.7368 21.6822C66.9093 21.8624 67.1354 21.9525 67.4153 21.9525C67.7181 21.9525 67.9481 21.8624 68.1053 21.6822C68.2663 21.5021 68.3468 21.2357 68.3468 20.883C68.3468 20.5418 68.2682 20.2907 68.111 20.1297C67.9538 19.9649 67.7219 19.8825 67.4153 19.8825ZM71.7693 25V23.781H72.5743V20.101H71.7693V18.8935H73.96L74.2935 20.2677C74.512 19.7426 74.7899 19.3516 75.1273 19.0947C75.4684 18.8379 75.8843 18.7095 76.375 18.7095C76.582 18.7095 76.766 18.7267 76.927 18.7612C77.088 18.7919 77.2394 18.836 77.3813 18.8935L76.8293 20.3942C76.7181 20.3636 76.6069 20.3406 76.4958 20.3252C76.3846 20.3099 76.2619 20.3022 76.1278 20.3022C75.7291 20.3022 75.3783 20.4652 75.0755 20.791C74.7765 21.1168 74.5484 21.5308 74.3913 22.033V23.781H75.5988V25H71.7693ZM75.9035 21.4465V19.664L76.1738 18.8935H77.3813L77.042 21.4465H75.9035ZM83.7478 23.2405C83.7478 23.4705 83.7784 23.6372 83.8398 23.7407C83.9049 23.8442 84.0084 23.9228 84.1503 23.9765L83.7765 25.1725C83.4162 25.138 83.1114 25.0594 82.8623 24.9367C82.6169 24.8102 82.4234 24.6205 82.2815 24.3675C82.0477 24.6473 81.7487 24.8562 81.3845 24.9942C81.0204 25.1284 80.6485 25.1955 80.269 25.1955C79.6404 25.1955 79.1382 25.0172 78.7625 24.6607C78.3907 24.3004 78.2048 23.8385 78.2048 23.275C78.2048 22.6118 78.4635 22.1001 78.981 21.7397C79.5024 21.3794 80.2345 21.1992 81.1775 21.1992H81.9998V20.9692C81.9998 20.6511 81.8963 20.4153 81.6893 20.262C81.4861 20.1087 81.1871 20.032 80.7923 20.032C80.5968 20.032 80.3457 20.0607 80.039 20.1182C79.7324 20.1719 79.4257 20.2505 79.119 20.354L78.6993 19.1465C79.0941 18.997 79.5043 18.8839 79.9298 18.8072C80.3591 18.7306 80.7424 18.6922 81.0798 18.6922C81.9883 18.6922 82.6591 18.8782 83.0923 19.25C83.5293 19.618 83.7478 20.1508 83.7478 20.8485V23.2405ZM80.8958 23.896C81.0913 23.896 81.2964 23.8385 81.511 23.7235C81.7257 23.6047 81.8886 23.4379 81.9998 23.2232V22.2342H81.5513C81.0453 22.2342 80.6734 22.3128 80.4358 22.47C80.1981 22.6233 80.0793 22.8495 80.0793 23.1485C80.0793 23.3823 80.1502 23.5663 80.292 23.7005C80.4377 23.8308 80.6389 23.896 80.8958 23.896ZM90.0165 18.6922C90.3079 18.6922 90.5474 18.7536 90.7353 18.8762C90.9231 18.9989 91.063 19.1925 91.155 19.457C91.247 19.7177 91.293 20.0588 91.293 20.4805V25H89.7348V20.6875C89.7348 20.4728 89.7137 20.3214 89.6715 20.2332C89.6332 20.1451 89.5527 20.101 89.43 20.101C89.3342 20.101 89.2345 20.1297 89.131 20.1872C89.0314 20.2409 88.9202 20.3444 88.7975 20.4977V25H87.521V20.6875C87.521 20.4728 87.4999 20.3214 87.4578 20.2332C87.4194 20.1451 87.3389 20.101 87.2163 20.101C87.1204 20.101 87.0208 20.1297 86.9173 20.1872C86.8176 20.2409 86.7064 20.3444 86.5838 20.4977V25H85.0025V18.8935H86.3365L86.4573 19.4857C86.6489 19.2251 86.8425 19.0277 87.038 18.8935C87.2335 18.7593 87.4654 18.6922 87.7338 18.6922C87.9638 18.6922 88.1593 18.7517 88.3203 18.8705C88.4851 18.9855 88.602 19.1676 88.671 19.4167C88.855 19.2021 89.0582 19.0277 89.2805 18.8935C89.5029 18.7593 89.7482 18.6922 90.0165 18.6922ZM96.912 18.6922C97.2034 18.6922 97.443 18.7536 97.6308 18.8762C97.8186 18.9989 97.9585 19.1925 98.0505 19.457C98.1425 19.7177 98.1885 20.0588 98.1885 20.4805V25H96.6303V20.6875C96.6303 20.4728 96.6092 20.3214 96.567 20.2332C96.5287 20.1451 96.4482 20.101 96.3255 20.101C96.2297 20.101 96.13 20.1297 96.0265 20.1872C95.9269 20.2409 95.8157 20.3444 95.693 20.4977V25H94.4165V20.6875C94.4165 20.4728 94.3955 20.3214 94.3533 20.2332C94.315 20.1451 94.2345 20.101 94.1118 20.101C94.016 20.101 93.9163 20.1297 93.8128 20.1872C93.7131 20.2409 93.602 20.3444 93.4793 20.4977V25H91.898V18.8935H93.232L93.3528 19.4857C93.5445 19.2251 93.738 19.0277 93.9335 18.8935C94.129 18.7593 94.361 18.6922 94.6293 18.6922C94.8593 18.6922 95.0548 18.7517 95.2158 18.8705C95.3806 18.9855 95.4975 19.1676 95.5665 19.4167C95.7505 19.2021 95.9537 19.0277 96.176 18.8935C96.3984 18.7593 96.6437 18.6922 96.912 18.6922ZM103.026 18.8935V23.758H104.578V25H99.4778V23.758H101.209V20.1355H99.5353V18.8935H103.026ZM101.927 15.6965C102.242 15.6965 102.498 15.7942 102.698 15.9897C102.897 16.1852 102.997 16.4287 102.997 16.72C102.997 17.0113 102.897 17.2567 102.698 17.456C102.498 17.6515 102.242 17.7492 101.927 17.7492C101.609 17.7492 101.348 17.6515 101.145 17.456C100.946 17.2567 100.846 17.0113 100.846 16.72C100.846 16.4287 100.946 16.1852 101.145 15.9897C101.348 15.7942 101.609 15.6965 101.927 15.6965ZM106.189 25V18.8935H107.776L107.903 19.6007C108.175 19.2941 108.462 19.066 108.765 18.9165C109.068 18.767 109.413 18.6922 109.8 18.6922C110.322 18.6922 110.732 18.8513 111.031 19.1695C111.33 19.4877 111.479 19.9362 111.479 20.515V25H109.662V21.0382C109.662 20.7891 109.645 20.5917 109.611 20.446C109.576 20.2965 109.515 20.1911 109.427 20.1297C109.342 20.0646 109.225 20.032 109.076 20.032C108.949 20.032 108.825 20.0607 108.702 20.1182C108.583 20.1719 108.466 20.2505 108.351 20.354C108.236 20.4575 108.121 20.5821 108.006 20.7277V25H106.189ZM118.507 17.916L118.933 19.25C118.718 19.3343 118.467 19.3957 118.179 19.434C117.892 19.4723 117.556 19.4915 117.173 19.4915C117.556 19.6563 117.848 19.8614 118.047 20.1067C118.25 20.3482 118.352 20.6664 118.352 21.0612C118.352 21.4561 118.246 21.8087 118.036 22.1192C117.825 22.4259 117.526 22.6674 117.139 22.8437C116.751 23.0201 116.293 23.1082 115.764 23.1082C115.634 23.1082 115.511 23.1025 115.396 23.091C115.281 23.0795 115.168 23.0622 115.057 23.0392C114.992 23.0737 114.942 23.1236 114.908 23.1887C114.873 23.2539 114.856 23.321 114.856 23.39C114.856 23.4858 114.894 23.5721 114.971 23.6487C115.051 23.7254 115.237 23.7637 115.529 23.7637H116.529C117.004 23.7637 117.415 23.8404 117.76 23.9937C118.108 24.1471 118.379 24.356 118.57 24.6205C118.762 24.885 118.858 25.1878 118.858 25.529C118.858 26.1538 118.584 26.6464 118.036 27.0068C117.487 27.3671 116.673 27.5473 115.592 27.5473C114.81 27.5473 114.204 27.4668 113.775 27.3058C113.349 27.1486 113.052 26.9224 112.884 26.6273C112.719 26.3359 112.636 25.989 112.636 25.5865H114.246C114.246 25.7628 114.281 25.9066 114.35 26.0178C114.423 26.1328 114.559 26.2171 114.758 26.2708C114.961 26.3244 115.254 26.3513 115.638 26.3513C116.025 26.3513 116.32 26.3206 116.523 26.2593C116.726 26.1979 116.864 26.1136 116.937 26.0063C117.014 25.9028 117.052 25.7858 117.052 25.6555C117.052 25.4753 116.981 25.3297 116.84 25.2185C116.698 25.1073 116.473 25.0518 116.167 25.0518H115.195C114.536 25.0518 114.057 24.931 113.758 24.6895C113.459 24.4442 113.309 24.1586 113.309 23.8327C113.309 23.6066 113.368 23.3919 113.487 23.1887C113.61 22.9856 113.781 22.815 113.999 22.677C113.608 22.47 113.328 22.2266 113.16 21.9467C112.991 21.6631 112.907 21.3238 112.907 20.929C112.907 20.469 113.023 20.0742 113.257 19.7445C113.491 19.411 113.813 19.1542 114.223 18.974C114.637 18.7938 115.109 18.7037 115.638 18.7037C116.094 18.7114 116.491 18.6807 116.828 18.6117C117.165 18.5389 117.468 18.4412 117.737 18.3185C118.005 18.192 118.262 18.0578 118.507 17.916ZM115.684 19.8825C115.396 19.8825 115.168 19.9745 115 20.1585C114.831 20.3387 114.747 20.5878 114.747 20.906C114.747 21.2433 114.833 21.5021 115.005 21.6822C115.178 21.8624 115.404 21.9525 115.684 21.9525C115.987 21.9525 116.217 21.8624 116.374 21.6822C116.535 21.5021 116.615 21.2357 116.615 20.883C116.615 20.5418 116.537 20.2907 116.38 20.1297C116.222 19.9649 115.99 19.8825 115.684 19.8825ZM127.14 25V17.0305H129.026V23.5107H132.482L132.287 25H127.14ZM137.503 18.8935V23.758H139.056V25H133.955V23.758H135.686V20.1355H134.013V18.8935H137.503ZM136.405 15.6965C136.719 15.6965 136.976 15.7942 137.175 15.9897C137.375 16.1852 137.474 16.4287 137.474 16.72C137.474 17.0113 137.375 17.2567 137.175 17.456C136.976 17.6515 136.719 17.7492 136.405 17.7492C136.087 17.7492 135.826 17.6515 135.623 17.456C135.424 17.2567 135.324 17.0113 135.324 16.72C135.324 16.4287 135.424 16.1852 135.623 15.9897C135.826 15.7942 136.087 15.6965 136.405 15.6965ZM146.089 17.916L146.515 19.25C146.3 19.3343 146.049 19.3957 145.761 19.434C145.474 19.4723 145.138 19.4915 144.755 19.4915C145.138 19.6563 145.43 19.8614 145.629 20.1067C145.832 20.3482 145.934 20.6664 145.934 21.0612C145.934 21.4561 145.828 21.8087 145.618 22.1192C145.407 22.4259 145.108 22.6674 144.721 22.8437C144.333 23.0201 143.875 23.1082 143.346 23.1082C143.216 23.1082 143.093 23.1025 142.978 23.091C142.863 23.0795 142.75 23.0622 142.639 23.0392C142.574 23.0737 142.524 23.1236 142.49 23.1887C142.455 23.2539 142.438 23.321 142.438 23.39C142.438 23.4858 142.476 23.5721 142.553 23.6487C142.633 23.7254 142.819 23.7637 143.111 23.7637H144.111C144.586 23.7637 144.997 23.8404 145.342 23.9937C145.69 24.1471 145.961 24.356 146.152 24.6205C146.344 24.885 146.44 25.1878 146.44 25.529C146.44 26.1538 146.166 26.6464 145.618 27.0068C145.069 27.3671 144.255 27.5473 143.174 27.5473C142.392 27.5473 141.786 27.4668 141.357 27.3058C140.931 27.1486 140.634 26.9224 140.466 26.6273C140.301 26.3359 140.218 25.989 140.218 25.5865H141.828C141.828 25.7628 141.863 25.9066 141.932 26.0178C142.005 26.1328 142.141 26.2171 142.34 26.2708C142.543 26.3244 142.837 26.3513 143.22 26.3513C143.607 26.3513 143.902 26.3206 144.105 26.2593C144.309 26.1979 144.447 26.1136 144.519 26.0063C144.596 25.9028 144.634 25.7858 144.634 25.6555C144.634 25.4753 144.563 25.3297 144.422 25.2185C144.28 25.1073 144.056 25.0518 143.749 25.0518H142.777C142.118 25.0518 141.639 24.931 141.34 24.6895C141.041 24.4442 140.891 24.1586 140.891 23.8327C140.891 23.6066 140.951 23.3919 141.069 23.1887C141.192 22.9856 141.363 22.815 141.581 22.677C141.19 22.47 140.91 22.2266 140.742 21.9467C140.573 21.6631 140.489 21.3238 140.489 20.929C140.489 20.469 140.606 20.0742 140.839 19.7445C141.073 19.411 141.395 19.1542 141.805 18.974C142.219 18.7938 142.691 18.7037 143.22 18.7037C143.676 18.7114 144.073 18.6807 144.41 18.6117C144.747 18.5389 145.05 18.4412 145.319 18.3185C145.587 18.192 145.844 18.0578 146.089 17.916ZM143.266 19.8825C142.978 19.8825 142.75 19.9745 142.582 20.1585C142.413 20.3387 142.329 20.5878 142.329 20.906C142.329 21.2433 142.415 21.5021 142.587 21.6822C142.76 21.8624 142.986 21.9525 143.266 21.9525C143.569 21.9525 143.799 21.8624 143.956 21.6822C144.117 21.5021 144.197 21.2357 144.197 20.883C144.197 20.5418 144.119 20.2907 143.962 20.1297C143.804 19.9649 143.573 19.8825 143.266 19.8825ZM152.703 23.2405C152.703 23.4705 152.734 23.6372 152.795 23.7407C152.86 23.8442 152.964 23.9228 153.105 23.9765L152.732 25.1725C152.371 25.138 152.067 25.0594 151.817 24.9367C151.572 24.8102 151.378 24.6205 151.237 24.3675C151.003 24.6473 150.704 24.8562 150.34 24.9942C149.975 25.1284 149.604 25.1955 149.224 25.1955C148.595 25.1955 148.093 25.0172 147.718 24.6607C147.346 24.3004 147.16 23.8385 147.16 23.275C147.16 22.6118 147.419 22.1001 147.936 21.7397C148.457 21.3794 149.19 21.1992 150.133 21.1992H150.955V20.9692C150.955 20.6511 150.851 20.4153 150.644 20.262C150.441 20.1087 150.142 20.032 149.747 20.032C149.552 20.032 149.301 20.0607 148.994 20.1182C148.687 20.1719 148.381 20.2505 148.074 20.354L147.654 19.1465C148.049 18.997 148.459 18.8839 148.885 18.8072C149.314 18.7306 149.698 18.6922 150.035 18.6922C150.943 18.6922 151.614 18.8782 152.047 19.25C152.484 19.618 152.703 20.1508 152.703 20.8485V23.2405ZM149.851 23.896C150.046 23.896 150.251 23.8385 150.466 23.7235C150.681 23.6047 150.844 23.4379 150.955 23.2232V22.2342H150.506C150 22.2342 149.629 22.3128 149.391 22.47C149.153 22.6233 149.034 22.8495 149.034 23.1485C149.034 23.3823 149.105 23.5663 149.247 23.7005C149.393 23.8308 149.594 23.896 149.851 23.896Z" fill="white"/>
<path d="M163.682 18.376V20.4862H166.477V21.8375H163.682V25H161.79V17.0305H167.029L166.833 18.376H163.682ZM170.894 18.6922C171.523 18.6922 172.057 18.8264 172.498 19.0947C172.939 19.3631 173.276 19.7407 173.51 20.2275C173.744 20.7105 173.861 21.2778 173.861 21.9295C173.861 22.608 173.742 23.1926 173.504 23.6832C173.271 24.1701 172.933 24.5438 172.492 24.8045C172.052 25.0652 171.519 25.1955 170.894 25.1955C170.273 25.1955 169.74 25.0671 169.295 24.8103C168.855 24.5534 168.515 24.1816 168.278 23.6947C168.044 23.2079 167.927 22.6233 167.927 21.941C167.927 21.2932 168.044 20.7258 168.278 20.239C168.515 19.7522 168.855 19.3727 169.295 19.1005C169.74 18.8283 170.273 18.6922 170.894 18.6922ZM170.894 20.032C170.522 20.032 170.246 20.1853 170.066 20.492C169.89 20.7948 169.801 21.2778 169.801 21.941C169.801 22.6157 169.89 23.1044 170.066 23.4072C170.246 23.7101 170.522 23.8615 170.894 23.8615C171.266 23.8615 171.54 23.7101 171.716 23.4072C171.896 23.1044 171.986 22.6118 171.986 21.9295C171.986 21.2702 171.896 20.7891 171.716 20.4862C171.54 20.1834 171.266 20.032 170.894 20.032ZM175.144 25V18.8935H176.731L176.858 19.6007C177.13 19.2941 177.418 19.066 177.72 18.9165C178.023 18.767 178.368 18.6922 178.755 18.6922C179.277 18.6922 179.687 18.8513 179.986 19.1695C180.285 19.4877 180.434 19.9362 180.434 20.515V25H178.617V21.0382C178.617 20.7891 178.6 20.5917 178.566 20.446C178.531 20.2965 178.47 20.1911 178.382 20.1297C178.297 20.0646 178.18 20.032 178.031 20.032C177.904 20.032 177.78 20.0607 177.657 20.1182C177.538 20.1719 177.421 20.2505 177.306 20.354C177.191 20.4575 177.076 20.5821 176.961 20.7277V25H175.144ZM187.537 24.6435C187.299 24.7968 187.012 24.9272 186.674 25.0345C186.337 25.1418 185.958 25.1955 185.536 25.1955C184.739 25.1955 184.146 24.9923 183.759 24.586C183.372 24.1758 183.178 23.62 183.178 22.9185V20.147H181.896V18.8935H183.178V17.571L184.995 17.3525V18.8935H186.962L186.784 20.147H184.995V22.9185C184.995 23.2213 185.064 23.4379 185.202 23.5682C185.34 23.6986 185.561 23.7637 185.864 23.7637C186.078 23.7637 186.274 23.7388 186.45 23.689C186.63 23.6353 186.791 23.5682 186.933 23.4877L187.537 24.6435Z" fill="#2897FF"/>
<path d="M38.5712 40.716V39.24H44.5892V40.716H38.5712ZM38.5712 43.248V41.772H44.5892V43.248H38.5712ZM44.2245 40.716V39.24H48.2145V40.716H44.2245ZM44.2245 43.248V41.772H48.2145V43.248H44.2245ZM46.7325 37.212L50.3625 41.244L46.7325 45.276L45.4905 44.208L45.9285 43.734C46.0005 43.646 46.0785 43.562 46.1625 43.482C46.2505 43.398 46.3585 43.318 46.4865 43.242L47.7285 41.766L48.2145 41.244L47.7285 40.722L46.4865 39.246C46.3585 39.166 46.2505 39.086 46.1625 39.006C46.0785 38.926 46.0005 38.842 45.9285 38.754L45.4905 38.28L46.7325 37.212Z" fill="#0DCA55"/>
<path d="M62.1132 42.216L61.5072 43.59L54.8652 40.644L55.4832 39.3L62.1132 42.216ZM61.7232 45.336L61.1172 46.716L54.4692 43.752L55.0872 42.414L61.7232 45.336ZM62.1132 37.71L55.4832 40.626L54.8652 40.644V39.282L61.5072 36.33L62.1132 37.71Z" fill="#0077FF"/>
<path d="M71.4625 39.642L71.1625 42.018H72.8905V43.266H70.9945L70.7665 45H69.2005L69.4285 43.266H68.2885L68.0605 45H66.4945L66.7105 43.266H65.9965V42.018H66.8785L67.1905 39.642H66.4405V38.388H67.3585L67.5745 36.684H69.1525L68.9185 38.388H70.0645L70.2925 36.684H71.8585L71.6305 38.388H72.8905V39.642H71.4625ZM68.4445 42.018H69.5845L69.8965 39.642H68.7565L68.4445 42.018ZM78.5378 39.642L78.2378 42.018H78.9878V43.266H78.0698L77.8418 45H76.2758L76.5038 43.266H75.3638L75.1358 45H73.5698L73.7858 43.266H72.5258V42.018H73.9538L74.2658 39.642H72.5258V38.388H74.4338L74.6498 36.684H76.2278L75.9938 38.388H77.1398L77.3678 36.684H78.9338L78.7058 38.388H79.4318V39.642H78.5378ZM75.5198 42.018H76.6598L76.9718 39.642H75.8318L75.5198 42.018Z" fill="#C9601E"/>
<path d="M81.0231 42.018V40.47H87.0411V42.018H81.0231ZM86.6764 42.018V40.47H94.1164V42.018H86.6764ZM100.947 42.018H93.627V40.47H100.947V42.018ZM103.335 37.212L106.965 41.244L103.335 45.276L102.093 44.208L104.817 41.244L102.093 38.28L103.335 37.212ZM98.631 37.212L102.261 41.244L98.631 45.276L97.389 44.208L98.229 43.296C98.473 43.032 98.711 42.794 98.943 42.582C99.171 42.366 99.413 42.178 99.669 42.018V40.47C99.413 40.31 99.171 40.124 98.943 39.912C98.711 39.696 98.473 39.456 98.229 39.192L97.389 38.28L98.631 37.212Z" fill="#3DBF2C"/>
<path d="M115.342 40.716H111.352V39.24H115.342V40.716ZM115.342 43.248H111.352V41.772H115.342V43.248ZM112.834 37.212L114.076 38.28L113.638 38.754C113.566 38.842 113.486 38.926 113.398 39.006C113.314 39.086 113.208 39.166 113.08 39.246L111.838 40.722L111.352 41.244L111.838 41.766L113.08 43.242C113.208 43.318 113.314 43.398 113.398 43.482C113.486 43.562 113.566 43.646 113.638 43.734L114.076 44.208L112.834 45.276L109.204 41.244L112.834 37.212ZM114.978 40.716V39.24H122.418V40.716H114.978ZM114.978 43.248V41.772H122.418V43.248H114.978ZM122.053 40.716V39.24H128.071V40.716H122.053ZM122.053 43.248V41.772H128.071V43.248H122.053Z" fill="#C33C30"/>
<path d="M133.81 36.468L140.512 40.554V41.91L133.81 46.032H132.334V36.468H133.81ZM133.81 44.214L138.874 41.232L133.81 38.34V44.214Z" fill="#4A73F9"/>
<path d="M148.26 41.982V44.448H146.676V41.982H144.27V40.518H146.676V38.052H148.26V40.518H152.676V38.052H154.26V40.518H156.678V41.982H154.26V44.448H152.676V41.982H148.26Z" fill="#CD2F49"/>
<path d="M162.202 41.13C162.338 41.13 162.456 41.09 162.556 41.01C162.656 40.93 162.76 40.83 162.868 40.71C162.972 40.59 163.096 40.47 163.24 40.35C163.384 40.23 163.564 40.13 163.78 40.05C163.996 39.97 164.27 39.93 164.602 39.93C164.93 39.93 165.204 39.97 165.424 40.05C165.64 40.13 165.82 40.23 165.964 40.35C166.108 40.47 166.234 40.59 166.342 40.71C166.446 40.83 166.548 40.93 166.648 41.01C166.748 41.09 166.866 41.13 167.002 41.13C167.146 41.13 167.266 41.09 167.362 41.01C167.458 40.93 167.554 40.83 167.65 40.71C167.742 40.59 167.856 40.47 167.992 40.35C168.128 40.23 168.308 40.13 168.532 40.05C168.756 39.97 169.046 39.93 169.402 39.93C169.73 39.93 170.004 39.97 170.224 40.05C170.444 40.13 170.626 40.23 170.77 40.35C170.914 40.47 171.04 40.59 171.148 40.71C171.252 40.83 171.354 40.93 171.454 41.01C171.554 41.09 171.67 41.13 171.802 41.13C171.938 41.13 172.056 41.09 172.156 41.01C172.256 40.93 172.358 40.83 172.462 40.71C172.57 40.59 172.696 40.47 172.84 40.35C172.984 40.23 173.164 40.13 173.38 40.05C173.596 39.97 173.87 39.93 174.202 39.93C174.53 39.93 174.802 39.97 175.018 40.05C175.238 40.13 175.42 40.23 175.564 40.35C175.708 40.47 175.832 40.59 175.936 40.71C176.044 40.83 176.148 40.93 176.248 41.01C176.348 41.09 176.466 41.13 176.602 41.13C176.786 41.13 176.966 41.036 177.142 40.848C177.318 40.66 177.456 40.446 177.556 40.206L178.924 40.836C178.804 41.188 178.614 41.498 178.354 41.766C178.098 42.03 177.814 42.236 177.502 42.384C177.19 42.532 176.89 42.606 176.602 42.606C176.27 42.606 175.996 42.566 175.78 42.486C175.564 42.406 175.384 42.306 175.24 42.186C175.096 42.066 174.97 41.946 174.862 41.826C174.758 41.706 174.656 41.606 174.556 41.526C174.456 41.446 174.338 41.406 174.202 41.406C174.07 41.406 173.952 41.45 173.848 41.538C173.748 41.622 173.644 41.728 173.536 41.856C173.432 41.98 173.308 42.106 173.164 42.234C173.02 42.358 172.838 42.464 172.618 42.552C172.402 42.636 172.13 42.678 171.802 42.678C171.47 42.678 171.198 42.636 170.986 42.552C170.77 42.464 170.592 42.358 170.452 42.234C170.312 42.106 170.19 41.98 170.086 41.856C169.982 41.728 169.878 41.622 169.774 41.538C169.67 41.45 169.546 41.406 169.402 41.406C169.258 41.406 169.138 41.446 169.042 41.526C168.946 41.606 168.852 41.706 168.76 41.826C168.664 41.946 168.548 42.066 168.412 42.186C168.276 42.306 168.096 42.406 167.872 42.486C167.648 42.566 167.358 42.606 167.002 42.606C166.67 42.606 166.396 42.566 166.18 42.486C165.964 42.406 165.784 42.306 165.64 42.186C165.496 42.066 165.372 41.946 165.268 41.826C165.16 41.706 165.056 41.606 164.956 41.526C164.856 41.446 164.738 41.406 164.602 41.406C164.47 41.406 164.354 41.45 164.254 41.538C164.15 41.622 164.046 41.728 163.942 41.856C163.834 41.98 163.708 42.106 163.564 42.234C163.42 42.358 163.24 42.464 163.024 42.552C162.804 42.636 162.53 42.678 162.202 42.678C161.846 42.678 161.558 42.644 161.338 42.576C161.118 42.504 160.94 42.418 160.804 42.318C160.668 42.214 160.546 42.114 160.438 42.018C160.33 41.918 160.212 41.838 160.084 41.778C159.952 41.718 159.78 41.698 159.568 41.718V40.134C159.968 40.098 160.294 40.11 160.546 40.17C160.798 40.226 161.002 40.306 161.158 40.41C161.31 40.514 161.438 40.622 161.542 40.734C161.642 40.842 161.742 40.936 161.842 41.016C161.938 41.092 162.058 41.13 162.202 41.13ZM161.512 37.212L162.754 38.28L161.914 39.192C161.67 39.456 161.434 39.696 161.206 39.912C160.974 40.124 160.73 40.31 160.474 40.47V42.018C160.73 42.178 160.974 42.366 161.206 42.582C161.434 42.794 161.67 43.032 161.914 43.296L162.754 44.208L161.512 45.276L157.882 41.244L161.512 37.212Z" fill="#FAB624"/>
<path d="M183.601 46.584L182.221 45.894L188.119 36.012L189.481 36.684L183.601 46.584ZM192.175 39.264V40.746H179.527V39.264H192.175ZM192.175 41.79V43.26H179.527V41.79H192.175Z" fill="#E859D5"/>
</svg>
