<svg width="345" height="82" viewBox="0 0 345 82" fill="none" xmlns="http://www.w3.org/2000/svg">
<rect x="0.5" y="0.5" width="344" height="81" rx="17.5" fill="#293C2F"/>
<rect x="0.5" y="0.5" width="344" height="81" rx="17.5" stroke="#00CD37"/>
<path d="M15.4723 50.2893L20.1246 55.4831L15.4723 60.677L14.1923 59.5857L16.0877 57.5098C16.312 57.2636 16.5362 57.0366 16.7605 56.8287C16.9903 56.6154 17.2282 56.4267 17.4744 56.2626H10.7215V54.7036H17.4826C17.3021 54.5833 17.1379 54.4657 16.9903 54.3508C16.848 54.2359 16.7058 54.1074 16.5636 53.9652C16.4268 53.8175 16.2682 53.6479 16.0877 53.4564L14.1923 51.3805L15.4723 50.2893ZM32.6901 59.3067H38.4172L38.2039 60.8821H30.5157V59.4052L36.2757 51.1016H31.1065V49.559H38.3762V51.0523L32.6901 59.3067ZM47.3995 49.559V51.0113H44.9543V59.4216H47.3995V60.8821H40.5892V59.4216H43.0343V51.0113H40.5892V49.559H47.3995ZM55.8565 53.1282C55.8565 52.6086 55.7553 52.1928 55.5529 51.8811C55.356 51.5693 55.0743 51.3423 54.7078 51.2C54.3468 51.0578 53.9201 50.9867 53.4278 50.9867H52.0658V55.3928H53.4524C53.9283 55.3928 54.3468 55.3217 54.7078 55.1795C55.0688 55.0373 55.3506 54.8021 55.5529 54.4739C55.7553 54.1457 55.8565 53.6971 55.8565 53.1282ZM57.8586 53.1118C57.8586 53.9925 57.6699 54.7064 57.2924 55.2534C56.9205 55.8004 56.4008 56.2024 55.7335 56.4595C55.0661 56.7166 54.3003 56.8452 53.436 56.8452H52.0658V60.8821H50.1622V49.559H53.3047C54.727 49.559 55.8401 49.8517 56.6442 50.437C57.4538 51.0168 57.8586 51.9084 57.8586 53.1118ZM70.9738 59.5118C70.9738 59.2164 71.0422 58.9511 71.1789 58.7159C71.3211 58.4752 71.5126 58.2838 71.7533 58.1416C71.994 57.9993 72.262 57.9282 72.5574 57.9282C72.8582 57.9282 73.129 57.9993 73.3697 58.1416C73.6104 58.2838 73.7991 58.4752 73.9358 58.7159C74.0781 58.9511 74.1492 59.2164 74.1492 59.5118C74.1492 59.8017 74.0781 60.0698 73.9358 60.3159C73.7991 60.5566 73.6104 60.7481 73.3697 60.8903C73.129 61.0325 72.8582 61.1036 72.5574 61.1036C72.262 61.1036 71.994 61.0325 71.7533 60.8903C71.5126 60.7481 71.3211 60.5566 71.1789 60.3159C71.0422 60.0698 70.9738 59.8017 70.9738 59.5118ZM95.6582 52.8328C95.6582 53.3908 95.5433 53.8776 95.3136 54.2934C95.0893 54.7036 94.7803 55.0455 94.3864 55.319C93.998 55.5925 93.5632 55.8031 93.0818 55.9508L96.29 60.8821H94.0746L91.2274 56.2216H89.9885V60.8821H88.0849V49.559H91.2438C92.6989 49.559 93.7984 49.8325 94.5423 50.3795C95.2862 50.9211 95.6582 51.7388 95.6582 52.8328ZM93.6644 52.8328C93.6644 52.1764 93.4729 51.7033 93.09 51.4134C92.7126 51.118 92.1327 50.9703 91.3505 50.9703H89.9885V54.8267H91.3915C92.1191 54.8267 92.6797 54.6735 93.0736 54.3672C93.4674 54.0554 93.6644 53.544 93.6644 52.8328ZM103.122 58.158H99.0773L98.2897 60.8821H96.3532L99.9553 49.559H102.318L105.929 60.8821H103.91L103.122 58.158ZM99.4712 56.6893H102.72L101.104 51.0359L99.4712 56.6893ZM114.706 52.8328C114.706 53.3908 114.591 53.8776 114.361 54.2934C114.137 54.7036 113.828 55.0455 113.434 55.319C113.046 55.5925 112.611 55.8031 112.129 55.9508L115.338 60.8821H113.122L110.275 56.2216H109.036V60.8821H107.132V49.559H110.291C111.746 49.559 112.846 49.8325 113.59 50.3795C114.334 50.9211 114.706 51.7388 114.706 52.8328ZM112.712 52.8328C112.712 52.1764 112.52 51.7033 112.138 51.4134C111.76 51.118 111.18 50.9703 110.398 50.9703H109.036V54.8267H110.439C111.167 54.8267 111.727 54.6735 112.121 54.3672C112.515 54.0554 112.712 53.544 112.712 52.8328ZM128.116 59.5118C128.116 59.2164 128.185 58.9511 128.321 58.7159C128.464 58.4752 128.655 58.2838 128.896 58.1416C129.136 57.9993 129.404 57.9282 129.7 57.9282C130.001 57.9282 130.271 57.9993 130.512 58.1416C130.753 58.2838 130.942 58.4752 131.078 58.7159C131.221 58.9511 131.292 59.2164 131.292 59.5118C131.292 59.8017 131.221 60.0698 131.078 60.3159C130.942 60.5566 130.753 60.7481 130.512 60.8903C130.271 61.0325 130.001 61.1036 129.7 61.1036C129.404 61.1036 129.136 61.0325 128.896 60.8903C128.655 60.7481 128.464 60.5566 128.321 60.3159C128.185 60.0698 128.116 59.8017 128.116 59.5118ZM147.82 61.079L146.089 60.5457L150.429 51.0031H145.244V49.559H152.292V50.88L147.82 61.079ZM157.057 59.4052H161.693L161.496 60.8821H154.85V59.5364L159.461 53.6944H155.219V52.2175H161.635V53.5631L157.057 59.4052Z" fill="white"/>
<path d="M24.853 30.5032C24.853 31.2292 24.7173 31.8635 24.446 32.4062C24.1747 32.9488 23.808 33.4072 23.346 33.7812C22.884 34.1552 22.367 34.4558 21.795 34.6832L25.788 41.1182H21.707L18.407 35.2882H17.384V41.1182H13.776V25.8722H18.572C20.6473 25.8722 22.213 26.2498 23.269 27.0052C24.325 27.7605 24.853 28.9265 24.853 30.5032ZM21.135 30.5032C21.135 29.7698 20.9187 29.2382 20.486 28.9082C20.0607 28.5708 19.4263 28.4022 18.583 28.4022H17.384V32.8132H18.726C19.5107 32.8132 20.1083 32.6298 20.519 32.2632C20.9297 31.8965 21.135 31.3098 21.135 30.5032ZM30.4654 36.2892C30.5461 36.9272 30.7111 37.4442 30.9604 37.8402C31.2171 38.2288 31.5434 38.5148 31.9394 38.6982C32.3354 38.8742 32.7791 38.9622 33.2704 38.9622C33.8057 38.9622 34.3227 38.8742 34.8214 38.6982C35.3201 38.5222 35.8004 38.2875 36.2624 37.9942L37.6594 39.8862C37.1094 40.3555 36.4421 40.7405 35.6574 41.0412C34.8801 41.3418 33.9927 41.4922 32.9954 41.4922C31.6607 41.4922 30.5424 41.2282 29.6404 40.7002C28.7384 40.1648 28.0601 39.4315 27.6054 38.5002C27.1507 37.5688 26.9234 36.4982 26.9234 35.2882C26.9234 34.1368 27.1434 33.0918 27.5834 32.1532C28.0234 31.2072 28.6651 30.4555 29.5084 29.8982C30.3591 29.3335 31.3967 29.0512 32.6214 29.0512C33.7361 29.0512 34.7004 29.2895 35.5144 29.7662C36.3357 30.2428 36.9701 30.9285 37.4174 31.8232C37.8721 32.7178 38.0994 33.7922 38.0994 35.0462C38.0994 35.2442 38.0921 35.4568 38.0774 35.6842C38.0701 35.9115 38.0554 36.1132 38.0334 36.2892H30.4654ZM32.6214 31.3832C31.9981 31.3832 31.4957 31.6068 31.1144 32.0542C30.7331 32.5015 30.5021 33.2165 30.4214 34.1992H34.7114C34.7041 33.3485 34.5391 32.6665 34.2164 32.1532C33.8937 31.6398 33.3621 31.3832 32.6214 31.3832ZM46.9568 24.7942V37.4442C46.9568 37.9135 47.0888 38.2508 47.3528 38.4562C47.6241 38.6542 47.9945 38.7532 48.4638 38.7532C48.7645 38.7532 49.0541 38.7202 49.3328 38.6542C49.6115 38.5808 49.8718 38.4965 50.1138 38.4012L50.9498 40.7222C50.5538 40.9275 50.0771 41.1072 49.5198 41.2612C48.9625 41.4152 48.3135 41.4922 47.5728 41.4922C46.1648 41.4922 45.1308 41.0888 44.4708 40.2822C43.8108 39.4682 43.4808 38.3792 43.4808 37.0152V27.1702H40.0378V24.7942H46.9568ZM57.2882 36.2892C57.3689 36.9272 57.5339 37.4442 57.7832 37.8402C58.0399 38.2288 58.3662 38.5148 58.7622 38.6982C59.1582 38.8742 59.6019 38.9622 60.0932 38.9622C60.6286 38.9622 61.1456 38.8742 61.6442 38.6982C62.1429 38.5222 62.6232 38.2875 63.0852 37.9942L64.4822 39.8862C63.9322 40.3555 63.2649 40.7405 62.4802 41.0412C61.7029 41.3418 60.8156 41.4922 59.8182 41.4922C58.4836 41.4922 57.3652 41.2282 56.4632 40.7002C55.5612 40.1648 54.8829 39.4315 54.4282 38.5002C53.9736 37.5688 53.7462 36.4982 53.7462 35.2882C53.7462 34.1368 53.9662 33.0918 54.4062 32.1532C54.8462 31.2072 55.4879 30.4555 56.3312 29.8982C57.1819 29.3335 58.2196 29.0512 59.4442 29.0512C60.5589 29.0512 61.5232 29.2895 62.3372 29.7662C63.1586 30.2428 63.7929 30.9285 64.2402 31.8232C64.6949 32.7178 64.9222 33.7922 64.9222 35.0462C64.9222 35.2442 64.9149 35.4568 64.9002 35.6842C64.8929 35.9115 64.8782 36.1132 64.8562 36.2892H57.2882ZM59.4442 31.3832C58.8209 31.3832 58.3186 31.6068 57.9372 32.0542C57.5559 32.5015 57.3249 33.2165 57.2442 34.1992H61.5342C61.5269 33.3485 61.3619 32.6665 61.0392 32.1532C60.7166 31.6398 60.1849 31.3832 59.4442 31.3832ZM77.5196 37.7522C77.5196 38.1922 77.5783 38.5112 77.6956 38.7092C77.8203 38.9072 78.0183 39.0575 78.2896 39.1602L77.5746 41.4482C76.8853 41.3822 76.3023 41.2318 75.8256 40.9972C75.3563 40.7552 74.986 40.3922 74.7146 39.9082C74.2673 40.4435 73.6953 40.8432 72.9986 41.1072C72.302 41.3638 71.5906 41.4922 70.8646 41.4922C69.662 41.4922 68.7013 41.1512 67.9826 40.4692C67.2713 39.7798 66.9156 38.8962 66.9156 37.8182C66.9156 36.5495 67.4106 35.5705 68.4006 34.8812C69.398 34.1918 70.7986 33.8472 72.6026 33.8472H74.1756V33.4072C74.1756 32.7985 73.9776 32.3475 73.5816 32.0542C73.193 31.7608 72.621 31.6142 71.8656 31.6142C71.4916 31.6142 71.0113 31.6692 70.4246 31.7792C69.838 31.8818 69.2513 32.0322 68.6646 32.2302L67.8616 29.9202C68.617 29.6342 69.4016 29.4178 70.2156 29.2712C71.037 29.1245 71.7703 29.0512 72.4156 29.0512C74.1536 29.0512 75.437 29.4068 76.2656 30.1182C77.1016 30.8222 77.5196 31.8415 77.5196 33.1762V37.7522ZM72.0636 39.0062C72.4376 39.0062 72.83 38.8962 73.2406 38.6762C73.6513 38.4488 73.963 38.1298 74.1756 37.7192V35.8272H73.3176C72.3496 35.8272 71.6383 35.9775 71.1836 36.2782C70.729 36.5715 70.5016 37.0042 70.5016 37.5762C70.5016 38.0235 70.6373 38.3755 70.9086 38.6322C71.1873 38.8815 71.5723 39.0062 72.0636 39.0062ZM85.783 39.0062C86.3624 39.0062 86.828 38.9145 87.18 38.7312C87.5394 38.5478 87.719 38.2728 87.719 37.9062C87.719 37.6568 87.6494 37.4478 87.51 37.2792C87.3707 37.1105 87.103 36.9492 86.707 36.7952C86.311 36.6412 85.7244 36.4578 84.947 36.2452C84.2357 36.0545 83.605 35.8125 83.055 35.5192C82.5124 35.2258 82.087 34.8482 81.779 34.3862C81.4784 33.9242 81.328 33.3485 81.328 32.6592C81.328 31.9625 81.5224 31.3428 81.911 30.8002C82.2997 30.2575 82.8717 29.8322 83.627 29.5242C84.3824 29.2088 85.3064 29.0512 86.399 29.0512C87.4404 29.0512 88.346 29.1868 89.116 29.4582C89.8934 29.7222 90.5644 30.0595 91.129 30.4702L89.743 32.5162C89.259 32.2155 88.7384 31.9772 88.181 31.8012C87.6237 31.6178 87.0627 31.5262 86.498 31.5262C85.9334 31.5262 85.5117 31.6032 85.233 31.7572C84.9617 31.9038 84.826 32.1275 84.826 32.4282C84.826 32.6262 84.8957 32.7985 85.035 32.9452C85.1817 33.0845 85.453 33.2312 85.849 33.3852C86.245 33.5318 86.8244 33.7152 87.587 33.9352C88.3424 34.1478 88.9987 34.3935 89.556 34.6722C90.1207 34.9508 90.557 35.3248 90.865 35.7942C91.173 36.2562 91.327 36.8685 91.327 37.6312C91.327 38.4818 91.074 39.1968 90.568 39.7762C90.062 40.3482 89.391 40.7772 88.555 41.0632C87.719 41.3492 86.8024 41.4922 85.805 41.4922C84.6757 41.4922 83.6784 41.3308 82.813 41.0082C81.9477 40.6855 81.2107 40.2602 80.602 39.7322L82.351 37.7742C82.8057 38.1262 83.319 38.4195 83.891 38.6542C84.4704 38.8888 85.101 39.0062 85.783 39.0062ZM97.5224 36.2892C97.6031 36.9272 97.7681 37.4442 98.0174 37.8402C98.2741 38.2288 98.6004 38.5148 98.9964 38.6982C99.3924 38.8742 99.8361 38.9622 100.327 38.9622C100.863 38.9622 101.38 38.8742 101.878 38.6982C102.377 38.5222 102.857 38.2875 103.319 37.9942L104.716 39.8862C104.166 40.3555 103.499 40.7405 102.714 41.0412C101.937 41.3418 101.05 41.4922 100.052 41.4922C98.7178 41.4922 97.5994 41.2282 96.6974 40.7002C95.7954 40.1648 95.1171 39.4315 94.6624 38.5002C94.2078 37.5688 93.9804 36.4982 93.9804 35.2882C93.9804 34.1368 94.2004 33.0918 94.6404 32.1532C95.0804 31.2072 95.7221 30.4555 96.5654 29.8982C97.4161 29.3335 98.4538 29.0512 99.6784 29.0512C100.793 29.0512 101.757 29.2895 102.571 29.7662C103.393 30.2428 104.027 30.9285 104.474 31.8232C104.929 32.7178 105.156 33.7922 105.156 35.0462C105.156 35.2442 105.149 35.4568 105.134 35.6842C105.127 35.9115 105.112 36.1132 105.09 36.2892H97.5224ZM99.6784 31.3832C99.0551 31.3832 98.5528 31.6068 98.1714 32.0542C97.7901 32.5015 97.5591 33.2165 97.4784 34.1992H101.768C101.761 33.3485 101.596 32.6665 101.273 32.1532C100.951 31.6398 100.419 31.3832 99.6784 31.3832ZM132.353 29.4362L128.459 41.1182H124.367L120.429 29.4362H124.18L126.457 38.4562L128.833 29.4362H132.353ZM142.476 25.8722V40.6782H139.088V29.2932L135.953 31.2512L134.479 28.8642L139.396 25.8722H142.476ZM145.325 38.4892V41.1182H135.414V38.4892H145.325ZM150.761 39.0392C150.761 38.5918 150.871 38.1848 151.091 37.8182C151.311 37.4442 151.608 37.1472 151.982 36.9272C152.356 36.6998 152.767 36.5862 153.214 36.5862C153.669 36.5862 154.079 36.6998 154.446 36.9272C154.82 37.1472 155.117 37.4442 155.337 37.8182C155.557 38.1848 155.667 38.5918 155.667 39.0392C155.667 39.4792 155.557 39.8862 155.337 40.2602C155.117 40.6342 154.82 40.9312 154.446 41.1512C154.079 41.3785 153.669 41.4922 153.214 41.4922C152.767 41.4922 152.356 41.3785 151.982 41.1512C151.608 40.9312 151.311 40.6342 151.091 40.2602C150.871 39.8862 150.761 39.4792 150.761 39.0392ZM166.625 25.4872C168.444 25.4872 169.815 26.1912 170.739 27.5992C171.671 28.9998 172.136 30.9542 172.136 33.4622C172.136 35.9775 171.671 37.9465 170.739 39.3692C169.815 40.7845 168.444 41.4922 166.625 41.4922C164.792 41.4922 163.413 40.7845 162.489 39.3692C161.573 37.9465 161.114 35.9775 161.114 33.4622C161.114 30.9542 161.573 28.9998 162.489 27.5992C163.413 26.1912 164.792 25.4872 166.625 25.4872ZM166.625 28.0062C165.848 28.0062 165.28 28.4242 164.92 29.2602C164.561 30.0888 164.381 31.4895 164.381 33.4622C164.381 34.6062 164.414 35.5412 164.48 36.2672C164.554 36.9858 164.675 37.5432 164.843 37.9392C165.012 38.3352 165.239 38.6102 165.525 38.7642C165.819 38.9108 166.185 38.9842 166.625 38.9842C167.146 38.9842 167.568 38.8082 167.89 38.4562C168.22 38.1042 168.462 37.5248 168.616 36.7182C168.77 35.9042 168.847 34.8188 168.847 33.4622C168.847 31.9662 168.781 30.8258 168.649 30.0412C168.517 29.2565 168.29 28.7212 167.967 28.4352C167.652 28.1492 167.205 28.0062 166.625 28.0062ZM168.352 28.4902L169.243 30.3932L165.173 38.7972L164.172 37.2352L168.352 28.4902ZM177.584 39.0392C177.584 38.5918 177.694 38.1848 177.914 37.8182C178.134 37.4442 178.431 37.1472 178.805 36.9272C179.179 36.6998 179.59 36.5862 180.037 36.5862C180.492 36.5862 180.902 36.6998 181.269 36.9272C181.643 37.1472 181.94 37.4442 182.16 37.8182C182.38 38.1848 182.49 38.5918 182.49 39.0392C182.49 39.4792 182.38 39.8862 182.16 40.2602C181.94 40.6342 181.643 40.9312 181.269 41.1512C180.902 41.3785 180.492 41.4922 180.037 41.4922C179.59 41.4922 179.179 41.3785 178.805 41.1512C178.431 40.9312 178.134 40.6342 177.914 40.2602C177.694 39.8862 177.584 39.4792 177.584 39.0392ZM196.121 25.8722V40.6782H192.733V29.2932L189.598 31.2512L188.124 28.8642L193.041 25.8722H196.121ZM198.97 38.4892V41.1182H189.059V38.4892H198.97Z" fill="#1ADB00"/>
</svg>
